<?xml version="1.0" encoding="utf-8"?>
<!-- Generator: Adobe Illustrator 16.0.0, SVG Export Plug-In . SVG Version: 6.00 Build 0)  -->
<!DOCTYPE svg PUBLIC "-//W3C//DTD SVG 1.1//EN" "http://www.w3.org/Graphics/SVG/1.1/DTD/svg11.dtd">
<svg version="1.1" id="Layer_1" xmlns="http://www.w3.org/2000/svg" xmlns:xlink="http://www.w3.org/1999/xlink" x="0px" y="0px"
	 width="1000px" height="1000px" viewBox="0 0 800 800" enable-background="new 0 0 800 800" xml:space="preserve">
<g>
	<path fill-rule="evenodd" clip-rule="evenodd" fill="#00cfe8" d="M380.178,580.356c-1.544-11.411,8.292-19.899,17.673-21.703
		c11.618-2.234,20.342,7.411,21.651,17.227c1.557,11.666-7.387,20.979-17.452,21.972
		C390.932,598.946,381.465,589.869,380.178,580.356L380.178,580.356z M327.851,510.834c2.359-3.311,7.195-8.069,10.34-10.934
		c3.337-3.041,13.539-1.923,18.551-1.664c6.251,0.321,34.745,2.445,38.629,4.003c1.38,3.341,1.597,37.075,0.929,42.271
		c-1.555,12.094-8.902,4.842-19.755,18.852c-0.966,1.247-1.578,2.164-2.747,3.233C356.907,561.136,332.972,527.771,327.851,510.834
		L327.851,510.834z M482.839,465.361c23.776-3.25,29.859,36.53,3.553,38.777C459.45,506.44,458.007,468.757,482.839,465.361
		L482.839,465.361z M312.605,465.938c23.773-5.736,32.854,34.67,5.697,38.283C294.168,507.433,284.821,472.644,312.605,465.938
		L312.605,465.938z M464.926,523.928c-8.425,17.014-9.286,13.576-15.651,23.802c-1.979,3.18-6.918,14.087,2.155,7.553
		c5.534-3.985,13.49-14.78,17.254-22.229c1.411-2.794,8.76-16.872,10.583-19.019c3.9-4.591,22.375-0.296,30.167-18.718
		c1.015-2.398,1.939-4.902,1.886-7.783c-0.078-4.258-0.937-4.808,1.997-7.178c6.957-5.621,27.389-12.12,46.5-31.986l9.057-10.323
		c-0.531,13.764-13.01,39.774-18.85,49.872c-7.945,13.74-15.844,23.198-26.243,33.851c-7.662,7.849-13.85,13.233-23.056,19.997
		c-6.394,4.698-13.262,8.898-20.865,13.221c-12.82,7.287-34.73,15.398-52.237,16.607c-1.408-1.32-3.568-5.257-4.532-6.884
		c-4.606-7.774-7.332-11.114-19.287-13.523l-0.294-48.412l55.608-5.439l12.833,13.947L464.926,523.928L464.926,523.928z
		 M233.013,426.958c1.297-1.7,3.78-3.188,5.622-4.635c8.396-6.593,6.677-10.858,11.521-18.098l47.363-0.115l5.373,56.867
		c-9.364,4.102-18.825,17.347-13.762,32.254c4.659,13.721,16.875,17.983,30.273,18.627c6.097,11.237,11.394,21.623,18.19,31.587
		c9.908,14.523,20.494,20.089,23.579,26.108c-15.567-0.782-35.833-11.205-46.891-17.584c-13.889-8.012-21.178-14.862-32.193-24.337
		c-1.526-1.312-2.534-2.699-3.977-4.086c-2.827-2.715-5.482-5.172-7.974-8.184l-7.505-8.63c-4.599-5.705-9.264-11.971-13.409-18.896
		c-7.392-12.349-16.42-29.729-17.817-47.281c2.429,1.47,8.461,7.518,10.613,9.643c0.898,0.887,1.399,1.714,2.313,2.606l5.229,4.638
		c5.024,4.655,19.232,15.559,28.596,14.822c-0.529-6.943,0.816-4.107-6.776-9.282c-5.415-3.688-14.853-9.533-18.885-12.946
		C247.124,445.491,236.791,433.698,233.013,426.958L233.013,426.958z M403.887,434.911c13.385-5.943,21.206-7.539,26.326-19.265
		c1.313-3.009,2.934-8.124,3.397-11.459l59.35,0.504c1.555,8.22-1.164,31.918-2.507,40.702c-0.469,3.074-1.026,6.046-1.729,9.047
		c-0.524,2.243-0.268,2.472-2.184,3.175c-6.36,2.335-14.854,1.42-20.146,6.777c-9.72,9.843-7.373,15.182-10.314,22.421
		c-2.93,7.211-43.461,7.235-52.549,7.175L403.887,434.911L403.887,434.911z M311.823,457.877
		c-3.228-13.592-6.837-39.252-4.769-53.722l57.326-0.123c3.363,0.846,2.605,19.3,20.463,26.682
		c3.374,1.395,8.362,2.503,11.178,4.317c0.287,5.812,0.008,56.598-0.767,58.184c-5.054,3.436-43.802-2.875-51.946-3.846
		c-1.536-10.669-2.3-16.849-8.265-23.211C329.792,460.559,322.11,458.406,311.823,457.877L311.823,457.877z M397.144,374.757
		c32.078-5.842,42.165,48.161,5.24,51.925c-16.225,1.655-26.817-9.228-28.764-23.225
		C371.331,387.004,383.31,377.277,397.144,374.757L397.144,374.757z M575.419,381.144c11.408-2.37,20.021,7.319,21.332,17.106
		c1.616,12.064-6.916,20.477-16.683,22.362C557.808,424.912,547.652,386.911,575.419,381.144L575.419,381.144z M220.744,380.976
		c22.726-4.087,31.226,34.659,4.156,39.711C202.58,424.853,193.35,385.903,220.744,380.976L220.744,380.976z M306.614,396.798
		c-1.052-6.817,1.665-49.465,5.186-52.487c3.75-3.218,16.656-2.7,21.628-7.074c4.822-4.242,7.175-12.355,8.728-19.951
		c1.452-7.103,0.294-5.251,7.999-6.421c12.392-1.88,26.97-4.203,39.344-3.808c8.053,0.257,6.459-0.17,6.558,7.768l-0.138,28.706
		c-0.018,6.498-0.622,8.41,5.806,9.039c3.813-12.109,1.772-31.841,1.902-45.522c13.562-0.148,35.777,0.3,49.051,4.701
		c3.008,0.997,2.469,0.928,3.53,4.095c3.589,10.709,2.488,13.796,9.772,20.729c7.252,6.901,18.726,5.667,22.858,7.595
		c2.015,17.76,5.443,34.363,4.148,52.942l-58.979-0.315c-5.367-17.495-13.424-30.219-35.092-29.736
		c-10.089,0.225-18.798,4.001-23.287,9.25c-2.47,2.888-4.353,5.754-6.288,9.872l-3.557,8.532c-0.091,0.21-0.736,1.444-0.775,1.497
		c-0.682,0.893-0.105,0.424-1.079,0.974L306.614,396.798L306.614,396.798z M232.961,374.479
		c2.724-5.661,16.643-20.911,22.376-25.623c8.692-7.141,16.375-14.261,29.21-18.327c7.863-2.492,6.299-1.164,10.266,3.181
		c2.961,3.244,5.94,4.692,8.753,7.142l-5.79,56.334l-47.804-0.291c-0.735-1.971-2.226-4.333-3.214-6.621
		c-1.039-2.407-1.753-4.938-3.031-6.824C241.042,379.488,236.223,377.801,232.961,374.479L232.961,374.479z M495.945,342.768
		c-0.255-2.779,0.225-2.297,1.846-3.53l9.544-7.939c3.542-3.028,2.363-2.928,7.244-0.726c18.488,8.343,29.022,15.394,41.056,29.814
		c1.795,2.153,3.427,4.479,5.174,6.495c1.138,1.312,1.302,1.663,2.746,3.08c1.104,1.083,2.02,1.933,2.76,3.172
		c-1.382,2.185-6.725,6.289-10.579,11.049c-7.337,9.06-7.741,22.218-0.822,31.656c4.513,6.155,8.051,6.91,11.341,9.773
		c-2.057,9.232-15.451,21.773-23.397,27.767c-6.706,5.058-24.507,16.11-32.256,19.019c-4.518-2.953-7.752-7.267-11.666-10.896
		c-3.418-3.168-2.76-1.943-2.068-7.899c0.379-3.265,0.742-6.446,1.11-9.642c0.652-5.658,3.774-36.407,4.736-39.215
		c9.322-1.414,35.106,0.885,40.296-1.133l-0.305-6.469l-40.852-0.727L495.945,342.768L495.945,342.768z M482.615,296.84
		c11.405-2.224,19.721,7.449,21.017,17.365c1.539,11.766-6.898,20.478-17.257,21.667
		C463.683,338.476,452.706,302.675,482.615,296.84L482.615,296.84z M404.129,250.508c2.803-2.474,10.728-3.9,12.418-5.967
		c2.879-3.521,6.324-6.563,8.657-9.633c16.243,2.523,37.861,35.191,44.803,51.441c1.018,2.384,2.171,3.712,0.731,5.621
		c-1.026,1.362-2.807,2.791-4.074,4.032c-2.085,2.041-6.211,5.74-7.605,8.163l-55.456-4.809L404.129,250.508L404.129,250.508z
		 M233.372,359.647c-2.057-5.64,0.127-11.016,2.509-15.881l12.429-27.061c20.018-41.922,73.763-81.146,120.743-86.941
		c7.257-0.895,4.354,8.1,14.248,15c3.788,2.641,9.919,3.888,13.047,6.693c1.091,2.107,1.224,33.439,0.273,40.433
		c-0.77,5.659-1.026,5.965-6.487,7.017c-14.011,2.7-34.846,4.53-49.537,5.038c-1.947-1.88-3.859-4.997-5.815-7.072
		c-1.975-2.094-4.502-3.489-6.737-5.822c0.301-5.404,8.928-19.198,11.604-23.379c2.533-3.959,4.966-6.313,7.587-9.912
		c1.79-2.458,5.849-7.37,4.886-11.838c-14.075,0.24-27.654,35.567-33.079,43.642c-35.764,0.071-27.274,27.479-35.535,33.207
		c-4.589,3.182-13.485,7.367-18.7,10.445c-4.545,2.682-7.682,4.787-11.56,7.728C244.848,347.319,235.801,358.146,233.372,359.647
		L233.372,359.647z M568.606,362.8c-1.685-1.224-4.217-5.907-7.814-8.908c-1.589-1.326-2.379-2.738-3.956-4.109
		c-1.557-1.354-2.572-2.276-4.273-3.798c-6.945-6.216-11.385-8.543-19.49-13.272l-20.543-12.186
		c-2.689-2.376-2.431-9.098-3.086-13.085c-3.064-18.629-27.027-17.252-29.646-19.25c-0.076-0.059-10.339-19.341-11.459-21.256
		c-8.836-15.108-18.628-21.5-29.721-34.862c15.19-0.516,37.764,10.923,47.708,17.314c11.051,7.103,14.288,9.831,23.41,17.4
		l4.294,3.784c5.682,4.77,14.927,14.67,20.091,20.722c5.786,6.78,12.262,15.573,16.991,23.834
		C555.919,323.527,569.065,351.494,568.606,362.8L568.606,362.8z M396.888,203.976c23.865-6.123,32.65,33.886,6.359,38.869
		C380.979,247.065,367.768,211.447,396.888,203.976L396.888,203.976z M578.778,428.684c10.552-5.669,24.402-5.761,25.193-25.929
		c0.82-20.952-8.526-23.013-21.992-29.22c-4.248-1.958-3.734-3.167-4.874-8.157c-0.771-3.378-1.532-6.765-2.319-10.264
		c-1.632-7.255-3.4-13.083-5.883-19.649c-13.138-34.758-37.237-64.827-68.162-85.25c-20.695-13.668-29.243-17.736-53.146-23.555
		c-3.974-0.967-16.866-4.224-19.578-5.964c-2.103-1.349-4.523-11.784-8.755-16.819c-4.176-4.967-8.612-7.485-17.638-7.839
		c-18.112-0.709-23.247,9.057-28.661,22.422c-1.007,2.488-0.906,2.261-3.595,3.122c-12.378,3.963-20.104,4.251-34.513,9.891
		c-29.192,11.427-54.978,29.248-74.646,53.19c-19.086,23.233-29.289,48.902-37.438,77.834c-0.634,2.25-1.797,8.426-2.542,10.028
		c-0.911,1.958-0.092,0.626-4.739,1.958c-4.931,1.413-8.478,3.605-12.061,6.797c-14.132,12.591-11.112,40.321,13.771,45.759
		c2.957,0.646,2.863,0.055,3.521,3.217c2.429,11.656,5.923,23.295,10.083,34.294c4.606,12.182,10.626,24.539,16.886,34.251
		c8.705,13.501,10.358,14.799,19.382,25.473l9.66,9.614c19.097,15.914,29.375,23.682,54.91,34.355
		c6.087,2.544,12.175,4.879,19.082,6.521c5.298,1.261,15.84,2.988,20.155,5.367c2.66,1.466,2.204,8.003,8.96,16.623
		c3.011,3.842,9.743,7.659,17.272,8.22c28.452,2.119,25.287-22.535,32.384-25.433c1.334-0.545,3.434-1.056,4.884-1.395
		c26.144-6.109,40.217-10.512,63.711-25.542c11.25-7.197,19.711-14.714,28.647-22.501c7.706-6.716,17.395-18.971,23.348-27.778
		c9.995-14.789,19.332-34.228,24.108-52.603L578.778,428.684L578.778,428.684z"/>
</g>
</svg>
