<?xml version="1.0" encoding="utf-8"?>
<!-- Generator: Adobe Illustrator 16.0.0, SVG Export Plug-In . SVG Version: 6.00 Build 0)  -->
<!DOCTYPE svg PUBLIC "-//W3C//DTD SVG 1.1//EN" "http://www.w3.org/Graphics/SVG/1.1/DTD/svg11.dtd">
<svg version="1.1" id="Layer_1" xmlns="http://www.w3.org/2000/svg" xmlns:xlink="http://www.w3.org/1999/xlink" x="0px" y="0px"
	 width="800px" height="800px" viewBox="0 0 800 800" enable-background="new 0 0 800 800" xml:space="preserve">
<g>
	<path fill-rule="evenodd" clip-rule="evenodd" fill="#00cfe8" d="M202,518.935c0,13.126,3.583,25.656,12,35.096
		c0.996,1.116,1.611,1.51,2.603,2.779c3.262,4.178,14.569,12.275,19.907,12.388c1.76,0.037,3.632-0.026,5.409-0.026
		c28.71-0.001,57.426,0.056,86.134,0.016l107.185-0.464c7.594,0,13.578-0.449,21.08-0.449c10.66,0,21.686,0.487,32.32,0.025
		c6.59-0.286,6.9-9.711,0.787-10.705c-3.893-0.633-43.619-0.085-50.6-0.085c-6.271,0-13.996-0.638-19.926,0.259
		c-5.227,0.792-73.851,0.19-80.995,0.19c-9.364,0-95.978,1.225-100.37,0.346c-4.07-0.814-9.289-5.263-12.1-8.083
		c-7.554-7.578-12.671-17.233-12.671-29.043c0-11.889,5.048-16.657,9.573-24.964l13.008-22.428c0.924-1.697,1.746-2.828,2.676-4.5
		c0.949-1.706,1.658-2.999,2.575-4.602c0.793-1.387,1.662-2.647,2.515-4.213l18.095-31.244
		c7.311-13.538,15.695-26.596,23.185-40.058c0.931-1.672,1.752-2.803,2.676-4.5c1.788-3.281,3.47-5.857,5.241-9.112l33.464-57.589
		c0.917-1.603,1.626-2.896,2.575-4.602c0.931-1.672,1.751-2.803,2.676-4.5l30.958-53.367c9.451-15.914,27.932-17.62,42.125-6.851
		c0.977,0.741,1.176,1.095,2.166,1.87l16.314,21.813l40.189,61.178c4.654,6.982,8.891,13.561,13.545,20.544
		c2.32,3.48,4.262,6.615,6.549,10.048c2.195,3.294,16.82,26.615,18.65,27.996c3.125,2.358,7.371,0.792,8.551-2.45
		c0.924-2.538-0.393-4.355-1.578-6.316l-79.625-121.317c-7.521-11.278-14.586-21.783-27.275-27.445
		c-9.487-4.233-20.853-4.879-30.567-0.973c-10.916,4.391-16.028,12.641-21.767,22.191l-21.589,37.168
		c-1.859,3.071-3.425,5.932-5.275,9.079c-1.923,3.272-3.617,6.084-5.417,9.384c-1.777,3.254-3.455,5.831-5.242,9.111
		c-5.12,9.398-11.026,18.429-16.147,27.809c-6.853,12.552-14.282,24.876-21.566,37.191c-1.88,3.179-3.407,5.964-5.278,9.076
		c-0.957,1.592-1.702,3.006-2.63,4.546l-24.349,42.034c-0.925,1.697-1.746,2.829-2.676,4.501l-18.891,32.69
		c-4.229,7.149-13.056,21.15-15.77,28.187C203.231,509.67,202,514.88,202,518.935L202,518.935z"/>
	<path fill-rule="evenodd" clip-rule="evenodd" fill="#00cfe8" d="M522.422,533.929c-8.758-1.443-15.775-8.472-19.207-14.344
		c-15.666-26.817-1.184-62.545,22.611-63.516c34.9-1.424,44.324,64.718,7.406,77.452c-0.988-4.304-0.66-19.087-0.787-24.454
		c-0.098-4.055-0.172-8.082-0.273-12.128c-0.25-9.894-10.795-9.188-10.629,0.009L522.422,533.929L522.422,533.929z M516.279,446.873
		c0.063-0.013,3.813-2.303,5.113-2.813c6.797-2.662,15.346-0.482,18.912,4.013c-4.248-1.129-6.752-2.342-11.775-2.578
		C523.508,445.26,519.506,446.899,516.279,446.873L516.279,446.873z M502.967,408.595c0,3.072,4.041,10.764,5.686,14.049
		l5.977,12.863c-7.078,1.891-16.369,14.921-19.357,22.357l-3.518,10.387c-1.182-0.315-7.809-3.559-8.674-4.784l-8.691-18.67
		c-1.465-3.433-2.969-7.495-6.857-7.495c-5.037,0-5.381,3.3-5.381,6.279c0,1.902,10.342,22.384,11.904,26.222
		c1.418,3.488,3.721,3.361,9.029,6.221c1.801,0.969,2.971,2.052,5.08,2.543c-0.281,3.396-1.793,6.031-1.793,10.316h-23.773
		c-4.75,0-7.279,7.756-1.645,10.167c2.092,0.895,5.125,0.599,7.924,0.599c5.682-0.002,11.363,0,17.045,0
		c0.5,2.148,0.65,4.554,1.084,6.988l1.607,6.915c-0.336,0.09-12.082,6.396-13.029,9.846c-0.596,2.157-1.121,4.313-1.721,6.354
		c-0.883,3-5.092,15.597-4.082,18.299c1.178,3.149,3.104,3.627,5.824,3.627c6.881,0,6.973-20.069,10.436-23.652
		c0.779-0.805,5.898-3.992,7.057-4.605c5.598,10.578,18.33,21.53,30.949,21.53c12.121,0,17.109-1.524,26.402-9.034
		c3.75-3.032,2.174-1.932,5.111-5.202c2.344-2.608,4.51-6.859,5.715-7.742l6.74,4.921c2.818,2.08,2.324,3.079,3.576,8.087
		c0.514,2.055,2.893,12.16,3.936,13.558c3.377,4.531,9.52,0.945,9.52-1.896c0-5.078-3.598-17.693-5.162-23.095
		c-0.805-2.775-3.139-3.646-6.758-6.249c-2.801-2.013-5.008-3.763-7.814-5.642c0.225-2.696,2.127-7.413,2.242-12.56h22.875
		c3.197,0,6.281-1.855,6.281-5.382c0-7.607-9.793-5.831-17.494-5.831c-1.684,0-10.641,0.294-11.449-0.213
		c-1.023-0.641-0.908-3.579-1.1-4.729c-0.313-1.868-0.863-3.003-0.906-4.926l12.275-6.562c1.428-0.873,1.158-0.592,1.947-2.089
		c1.102-2.085,12.24-25.66,12.24-27.231c0-3.904-1.928-5.831-5.832-5.831c-3.75,0-4.76,4.174-6.127,6.881l-6.43,13.753
		c-4.291,8.473-0.014,4.414-10.318,9.866c-1.639-7.034-4.701-13.765-8.246-19.114c-2.51-3.788-10.168-12.141-14.629-13.181
		l8.965-19.292c1.219-2.738,2.697-5.095,2.697-7.62c0-3.084-2.428-4.934-5.83-4.934c-3.287,0-4.563,3.084-5.686,5.529l-3.545,7.668
		c-1.492,3.615-6.404,13.305-6.918,15.51c-1.738-0.039-1.506-0.32-2.691-0.32c-1.184,0-0.951,0.281-2.689,0.32l-10.617-23.023
		c-1.764-3.855-2.182-5.684-6.428-5.684C505.279,403.661,502.967,405.975,502.967,408.595L502.967,408.595z"/>
	<path fill-rule="evenodd" clip-rule="evenodd" fill="#00cfe8" d="M363.921,341.314c0-6.481,3.189-10.125,8.332-13.646
		c9.034-6.185,21.335-6.098,30.677-0.692c13.043,7.548,9.277,16.245,8.123,26.486c-1.857,16.505-4.922,34.533-6.727,50.685
		c-0.738,6.607-3.422,28.096-5.023,33.103c-1.515,4.734-3.329,9.233-8.513,10.328c-13.467,2.844-14.459-10.847-15.916-21.23
		C373.773,418.5,363.921,346.385,363.921,341.314L363.921,341.314z M352.707,340.418c0,2.773,0.618,5.709,0.935,8.484
		c0.309,2.697,0.714,5.423,1.118,8.301l6.78,51.082c2.968,20.348,1.863,50.547,26.152,50.547c19.739,0,22.723-18.67,24.696-32.717
		c0.785-5.592,1.613-11.313,2.254-17.033c1.82-16.292,4.885-34.205,6.727-50.685c0.295-2.625,0.686-5.391,1.111-8.309
		c0.385-2.655,1.096-6.279,1.096-8.772c0-22.711-34.032-40.1-59.597-21.022c-2.728,2.036-5.675,5.157-7.504,8.194
		c-1.054,1.749-1.77,3.358-2.376,5.25C353.683,335.031,352.707,338.967,352.707,340.418L352.707,340.418z"/>
	<path fill-rule="evenodd" clip-rule="evenodd" fill="#00cfe8" d="M522.422,533.929l-0.879-36.98
		c-0.166-9.197,10.379-9.902,10.629-0.009c0.102,4.046,0.176,8.073,0.273,12.128c0.127,5.367-0.201,20.15,0.787,24.454
		c36.918-12.734,27.494-78.876-7.406-77.452c-23.795,0.971-38.277,36.698-22.611,63.516
		C506.646,525.457,513.664,532.485,522.422,533.929L522.422,533.929z"/>
	<path fill-rule="evenodd" clip-rule="evenodd" fill="#00cfe8" d="M386.796,512.655c3.649,0,6.421-0.781,9.129-2.083
		c10.899-5.241,15.817-17.62,12.098-27.218c-2.072-5.35-8.411-5.006-10.328-0.584c-1.488,3.436,3.371,10.265-3.267,15.989
		c-8.72,7.52-19.295-0.077-19.295-7.634v-2.243c0-5.222,5.106-10.316,11.662-10.316c2.899,0,3.439,0.928,5.835-0.438
		c3.942-2.248,4.393-10.326-4.489-10.326c-7.534,0-13.226,1.814-17.839,6.83c-7.194,7.823-8.42,19.375-2.15,28.409
		c0.491,0.707,2.073,2.709,2.623,3.209C375.155,510.227,380.44,512.655,386.796,512.655L386.796,512.655z"/>
	<path fill-rule="evenodd" clip-rule="evenodd" fill="#00cfe8" d="M516.279,446.873c3.227,0.026,7.229-1.613,12.25-1.378
		c5.023,0.236,7.527,1.449,11.775,2.578c-3.566-4.495-12.115-6.675-18.912-4.013C520.092,444.57,516.342,446.86,516.279,446.873
		L516.279,446.873z"/>
</g>
</svg>
