<?xml version="1.0" encoding="utf-8"?>
<!-- Generator: Adobe Illustrator 16.0.0, SVG Export Plug-In . SVG Version: 6.00 Build 0)  -->
<!DOCTYPE svg PUBLIC "-//W3C//DTD SVG 1.1//EN" "http://www.w3.org/Graphics/SVG/1.1/DTD/svg11.dtd">
<svg version="1.1" id="Layer_1" xmlns="http://www.w3.org/2000/svg" xmlns:xlink="http://www.w3.org/1999/xlink" x="0px" y="0px"
	 width="800px" height="800px" viewBox="0 0 800 800" enable-background="new 0 0 800 800" xml:space="preserve">
<g>
	<path fill-rule="evenodd" clip-rule="evenodd" fill="#FF6363" d="M281.959,355.694l3.304-0.103l0.02,9.811l-3.676,0.026
		L281.959,355.694L281.959,355.694z M296.344,364.368c-0.933-1.869-0.677-6.128-0.304-8.599l3.771-0.064l-0.129,9.027
		L296.344,364.368L296.344,364.368z M308.004,316.359c20.611-4.595,27.529,27.21,6.829,32.018
		c-9.496,2.205-18.833-3.725-18.981-11.996C295.698,327.789,294.44,319.384,308.004,316.359L308.004,316.359z M268.59,316.154
		c8.504-1.411,16.732,3.893,16.685,14.377c-0.03,6.618,0.807,9.135-2.825,13.292c-2.004,2.293-6.584,4.569-11.08,4.988
		C251.784,350.637,245.182,320.04,268.59,316.154L268.59,316.154z M341.925,330.991c0.094-14.109-4.389-18.319-5.361-23.615
		l169.209,0.151c0.654,7.759,0.199,44.284,0.199,54.852c0,1.853-0.33,2.305-2.227,2.305c-52.654-0.029-106.67,0.529-158.818-0.016
		c1.837-4.297,3.11-7.154,2.12-12.906c-0.862-5.005-3.626-6.097-4.789-10.038l40.394-0.004c4.36,0.018,8.126-0.953,7.764-5.793
		c-0.339-4.52-4.331-4.832-8.666-4.816C372.697,331.144,347.861,331.622,341.925,330.991L341.925,330.991z M268.214,220.3
		l-5.166-10.333c-2.133,0.909-7.902,3.613-9.236,4.844l5.125,10.235c-4.581,3.409-19.98,5.178-26.672,5.403l21.746,18.353
		c9.372,7.326,19.965,16.843,29.433,24.398l7.076,6.001c-13.813,1.259-22.898,3.772-31.779,10.859
		c-13.713,10.943-19.403,25.364-19.558,44.058c-0.024,2.872,0.32,7.45-1.048,9.786c-1.521,2.599-2.646,2.446-3.776,6.984
		c-1.664,6.681,0.563,12.178,3.668,16.167c3.606,4.63,7.811,4.705,14.84,6.688l-0.047,18.825l11.932,0.093l0.038-15.934l5.19-0.232
		l0.179,16.214l10.896-0.042c0.531-3.145,0.24-12.188,0.248-15.94l4.9-0.254l0.41,16.175l11.379-0.059l0.034-16.136l14.317,0.033
		c0.316,3.59-0.647,5.448,1.712,7.833c2.306,2.329,1.154,1.472,1.465,7.957l11.016,0.549l0.033-17.542h147.352
		c-0.018,3.681-0.641,12.424,6.848,10.393c4.141-1.123,3.729-5.643,3.729-10.347c14.232-0.538,32.072,4.08,32.072-12.949v-52.478
		c0-13.426-10.424-13.121-18.203-13.121c-55.023,0.003-111.146-0.38-165.987,0.024c-3.857,0.029-4.544-1.663-7.354-4.631
		c-0.819-0.865-1.242-1.067-2.229-1.824c-1.684-1.291-2.838-2.173-4.72-3.356c-6.899-4.336-14.708-7.041-24.234-7.625l-5.319-77.53
		c-1.699,1.648-2.95,3.568-4.348,5.12C280.773,210.744,272.544,218.714,268.214,220.3L268.214,220.3z"/>
	<path fill-rule="evenodd" clip-rule="evenodd" fill="#FF6363" d="M477.041,568.572c1.25,2.641,1.254,20.063-0.012,22.68
		c-4.355,1.114-71.395,0.41-81.826,0.41h-61.897c-10.244,0.001-9.069,1.876-9.069-11.744c0-2.002-0.251-8.304,0.125-9.821
		c0.722-2.907,5.835-1.861,8.495-1.86C347.153,568.238,473.096,567.629,477.041,568.572L477.041,568.572z M295.869,502.77
		c0-2.281,0.303-2.516,2.451-2.516l207.445,0.149c0.65,7.432,0.207,44.527,0.207,54.846c0,2.255-0.465,2.311-2.672,2.311
		l-28.258-0.059c-2.629-0.019-173.451,0.587-178.922-0.22C295.492,552.21,295.869,511.268,295.869,502.77L295.869,502.77z
		 M313.84,568.36c-0.534,4.173-0.202,10.253-0.202,14.697c0,5.051-0.518,9.131,2.059,13.126c4.968,7.707,13.65,6.079,24.337,6.079
		h122.001c10.715,0,19.34,1.529,24.277-6.152c2.609-4.063,2.059-7.944,2.059-13.053c-0.002-4.658,0.277-10.315-0.205-14.772
		c8.727-0.958,18.477,1.964,24.574-3.151c5.33-4.471,3.83-15.323,3.83-23.789c0-9.271,0-18.54,0-27.81
		c0-9.697,1.523-17.563-5.578-22.054c-4.842-3.062-19.432-1.823-26.082-1.823H317.607c-6.297,0-21.908-1.053-26.373,1.547
		c-7.318,4.26-5.963,11.92-5.963,21.882c0,9.27,0,18.539,0,27.809c0,8.961-1.656,18.915,3.826,24.031
		C295.545,570.942,305.082,566.711,313.84,568.36L313.84,568.36z"/>
	<path fill-rule="evenodd" clip-rule="evenodd" fill="#FF6363" d="M295.869,408.578c0-2.28,0.298-2.522,2.451-2.522l207.451,0.153
		c0.654,7.71,0.201,44.317,0.201,54.848c0,1.854-0.324,2.311-2.223,2.311l-183.002-0.025c-6.319,0.012-19.754,0.47-24.623-0.254
		C295.487,458.02,295.869,417.073,295.869,408.578L295.869,408.578z M312.421,473.969c0,3.423-1.046,10.473,5.188,10.596
		c5.833,0.115,5.409-5.429,5.409-10.561l150.884-0.036c0,2.019-0.256,5.445,0.355,7.157c0.645,1.808,2.375,3.387,4.824,3.438
		c5.838,0.123,5.416-5.418,5.416-10.552c6.723-0.241,21.133,1.215,26.07-1.639c7.482-4.327,6.002-11.352,6.002-21.633l0.006-41.729
		c-0.01-5.223-0.934-7.595-3.842-10.32c-5.217-4.891-16.566-3.233-24.684-3.233c-46.648,0-93.295,0-139.943,0
		c-8.282,0-51-0.836-55.359,0.826c-8.103,3.09-7.477,10.527-7.477,20.368c0,9.419,0,18.839,0,28.258
		c0,11.056-3.504,28.834,12.582,29.063C302.687,474.041,307.582,473.969,312.421,473.969L312.421,473.969z"/>
	<path fill-rule="evenodd" clip-rule="evenodd" fill="#FF6363" d="M204.167,424.9l-11.696-0.316L192,435.144l11.841,0.354
		c-1.205,11.994-4.456,16.622-8.248,26.025l74.534-29.181c-0.86-0.834-0.615-0.603-1.973-1.229
		c-12.184-5.611-66.177-31.178-70.649-32.726C200.475,407.957,203.533,411.559,204.167,424.9L204.167,424.9z"/>
	<path fill-rule="evenodd" clip-rule="evenodd" fill="#FF6363" d="M528.871,432.337l74.504,29.279
		c-3.133-8.891-6.93-13.114-8.191-26.124l11.617-0.357l-0.082-10.294c-2.904-0.724-8.525,0.105-11.863-0.012
		c0.758-15.126,5.59-21.608,6.615-26.425l-36.359,16.818C559.969,417.792,530.592,430.803,528.871,432.337L528.871,432.337z"/>
	<path fill-rule="evenodd" clip-rule="evenodd" fill="#FF6363" d="M509.527,281.733c2.109-1.167,12.443-10.195,15.398-12.551
		c5.314-4.235,10.125-8.498,15.422-12.833l30.662-25.621c0.059-0.068,0.162-0.197,0.23-0.304c-6.533-0.108-22.24-2.036-26.521-5.298
		l5.119-10.245l-9.369-4.884l-5.254,10.269c-3.83-1.487-13.395-10.173-15.711-13.134c-1.225-1.567-3.197-4.089-4.5-5.385
		L509.527,281.733L509.527,281.733z"/>
	<path fill-rule="evenodd" clip-rule="evenodd" fill="#FF6363" d="M391.971,210.742c-8.567,0.109-19.67-4.372-26.226-7.421
		l31.428,73.773l31.745-73.658c-4.979,2.349-19.934,7.995-26.352,7.198V199h-10.597L391.971,210.742L391.971,210.742z"/>
	<path fill-rule="evenodd" clip-rule="evenodd" fill="#FF6363" d="M300.715,530.58c0.862,3.895,4.307,4.032,8.368,4.015
		l62.797-0.005c6.274,0,20.434,2.467,18.408-6.628c-0.859-3.856-4.448-3.989-8.537-3.975l-62.798,0.003
		C312.542,523.99,298.719,521.555,300.715,530.58L300.715,530.58z"/>
	<path fill-rule="evenodd" clip-rule="evenodd" fill="#FF6363" d="M300.715,436.388c0.874,3.924,4.307,4.022,8.368,4.006
		l62.797-0.003c6.288,0,20.418,2.471,18.409-6.622c-0.832-3.763-4.451-3.995-8.538-3.979l-62.798,0.002
		C312.551,429.791,298.706,427.358,300.715,436.388L300.715,436.388z"/>
	<path fill-rule="evenodd" clip-rule="evenodd" fill="#FF6363" d="M456.273,435.938c2.729,11.14,20.803,8.223,18.338-4.442
		C472.305,419.64,453.107,423.001,456.273,435.938L456.273,435.938z"/>
	<path fill-rule="evenodd" clip-rule="evenodd" fill="#FF6363" d="M433.848,530.131c2.719,11.145,20.805,8.229,18.336-4.441
		C449.875,513.847,430.689,517.186,433.848,530.131L433.848,530.131z"/>
	<path fill-rule="evenodd" clip-rule="evenodd" fill="#FF6363" d="M433.848,435.938c2.727,11.143,20.801,8.217,18.336-4.442
		C449.877,419.641,430.68,422.998,433.848,435.938L433.848,435.938z"/>
	<path fill-rule="evenodd" clip-rule="evenodd" fill="#FF6363" d="M411.42,530.131c2.709,11.142,20.807,8.232,18.336-4.441
		C427.447,513.853,408.27,517.177,411.42,530.131L411.42,530.131z"/>
	<path fill-rule="evenodd" clip-rule="evenodd" fill="#FF6363" d="M411.42,435.938c2.713,11.134,20.801,8.227,18.336-4.442
		C427.451,419.651,408.262,422.983,411.42,435.938L411.42,435.938z"/>
	<path fill-rule="evenodd" clip-rule="evenodd" fill="#FF6363" d="M456.273,530.131c2.695,11.039,20.826,8.313,18.338-4.442
		C472.299,513.838,453.115,517.196,456.273,530.131L456.273,530.131z"/>
	<path fill-rule="evenodd" clip-rule="evenodd" fill="#FF6363" d="M462.563,325.939c-11.99,3.785-6.121,21.549,5.604,17.911
		C479.986,340.181,474.688,322.111,462.563,325.939L462.563,325.939z"/>
	<path fill-rule="evenodd" clip-rule="evenodd" fill="#FF6363" d="M417.709,325.939c-12.012,3.789-6.066,21.545,5.604,17.91
		C435.137,340.165,429.824,322.116,417.709,325.939L417.709,325.939z"/>
	<path fill-rule="evenodd" clip-rule="evenodd" fill="#FF6363" d="M440.135,325.939c-12.008,3.788-6.066,21.545,5.604,17.91
		C457.566,340.165,452.252,322.116,440.135,325.939L440.135,325.939z"/>
</g>
</svg>
