<?xml version="1.0" encoding="utf-8"?>
<!-- Generator: Adobe Illustrator 16.0.0, SVG Export Plug-In . SVG Version: 6.00 Build 0)  -->
<!DOCTYPE svg PUBLIC "-//W3C//DTD SVG 1.1//EN" "http://www.w3.org/Graphics/SVG/1.1/DTD/svg11.dtd">
<svg version="1.1" id="Layer_1" xmlns="http://www.w3.org/2000/svg" xmlns:xlink="http://www.w3.org/1999/xlink" x="0px" y="0px"
	 width="5.76px" height="5.76px" viewBox="0 0 5.76 5.76" enable-background="new 0 0 5.76 5.76" xml:space="preserve">
<g>
	<path fill-rule="evenodd" clip-rule="evenodd" fill="#00cfe8" d="M2.258,3.924c0-0.201,0.261-0.169,0.261-0.033
		c0,0.09-0.022,0.152-0.141,0.152C2.314,4.043,2.258,3.987,2.258,3.924L2.258,3.924z M3.529,3.608c-0.235,0-0.154-0.261-0.054-0.261
		c0.083,0,0.173,0.024,0.173,0.13C3.648,3.534,3.591,3.608,3.529,3.608L3.529,3.608z M2.628,3.358V3.304
		c0-0.081,0.1-0.157,0.182-0.149c0.209,0.019,0.225,0.322,0.007,0.35C2.73,3.517,2.628,3.444,2.628,3.358L2.628,3.358z M2.139,3.283
		c-0.143,0-0.188-0.261,0.032-0.261C2.309,3.022,2.35,3.283,2.139,3.283L2.139,3.283z M3.888,3.196c-0.086,0-0.141-0.043-0.141-0.13
		c0-0.187,0.26-0.171,0.26-0.011C4.007,3.133,3.964,3.196,3.888,3.196L3.888,3.196z M2.324,3C2.325,3.003,2.329,3.013,2.33,3.016
		c0.001,0.002,0.002,0.005,0.003,0.007C2.4,3.159,2.395,3.256,2.258,3.348c0.006,0.069,0.08,0.259,0.087,0.348
		c0.067-0.016,0.066-0.004,0.13,0.011c0.043-0.064,0.094-0.127,0.13-0.195C2.577,3.468,2.541,3.43,2.541,3.358
		c0-0.083-0.002-0.115,0.049-0.189C2.674,3.048,2.724,3.198,2.629,2.89c-0.007-0.023-0.02-0.083-0.034-0.097
		C2.578,2.776,2.529,2.773,2.497,2.772c-0.01,0.039-0.02,0.034-0.044,0.064L2.324,3L2.324,3z M3.659,3.033
		c0-0.029,0.006-0.03,0.012-0.054C3.584,2.92,3.497,2.863,3.41,2.805C3.271,2.898,3.248,2.844,3.171,2.837
		c-0.01,0.037-0.028,0.051-0.05,0.081c-0.02,0.026-0.032,0.047-0.048,0.071C3.042,3.037,3.008,3.082,2.975,3.13
		C3.017,3.192,3.063,3.22,3.063,3.337C3.127,3.342,3.255,3.391,3.29,3.391c0.019,0,0.075-0.13,0.218-0.13
		c0.064,0,0.059,0.01,0.108,0.021c0.031-0.021,0.055-0.056,0.076-0.087C3.655,3.125,3.659,3.113,3.659,3.033L3.659,3.033z
		 M1.368,2.968c0-0.205,0.261-0.167,0.261-0.033c0,0.074-0.02,0.152-0.12,0.152C1.435,3.087,1.368,3.037,1.368,2.968L1.368,2.968z
		 M4.409,2.739c0.199,0,0.165,0.272,0.021,0.272c-0.083,0-0.14-0.043-0.147-0.124C4.276,2.82,4.341,2.739,4.409,2.739L4.409,2.739z
		 M1.672,2.816c0.026,0.039,0.071,0.116,0.043,0.173c0.055,0.001,0.19,0.041,0.25,0.054C1.993,2.992,2,2.984,2.052,2.957
		C2.035,2.884,1.966,2.687,1.965,2.631c-0.082,0.007,0.004,0.024-0.163,0C1.792,2.668,1.704,2.768,1.672,2.816L1.672,2.816z
		 M2.682,2.761c0.052-0.028,0.083-0.054,0.098-0.12C2.891,2.667,3.045,2.649,3.079,2.69C3.08,2.693,3.112,2.764,3.116,2.772
		C3.046,2.878,2.97,2.98,2.899,3.087c-0.05-0.012-0.067-0.022-0.13-0.022L2.682,2.761L2.682,2.761z M3.16,2.664
		c0-0.155,0.228-0.164,0.228-0.011C3.388,2.811,3.16,2.793,3.16,2.664L3.16,2.664z M2.584,2.468c-0.118,0-0.165,0.228,0.021,0.228
		C2.729,2.696,2.747,2.468,2.584,2.468L2.584,2.468z M3.42,2.512C3.5,2.63,3.475,2.595,3.464,2.729l0.198,0.128
		c0.025,0.017,0.04,0.03,0.063,0.045c0.039-0.026,0.077-0.065,0.142-0.065c0.133,0,0.181,0.098,0.217,0.098
		c0,0,0.103-0.021,0.114-0.051c0.007-0.017-0.008-0.057,0.027-0.123C4.174,2.727,3.901,2.444,3.82,2.362
		c-0.166-0.166-0.078-0.009-0.247-0.09C3.557,2.333,3.44,2.439,3.42,2.512L3.42,2.512z M1.889,2.555
		c-0.122,0-0.15-0.228,0.021-0.228C2.028,2.327,2.055,2.555,1.889,2.555L1.889,2.555z M1.107,2.327c0-0.052,0.018-0.09,0.046-0.117
		c0.102-0.102,0.302-0.063,0.302,0.128C1.455,2.566,1.107,2.56,1.107,2.327L1.107,2.327z M2.074,2.338l0.326-0.304
		c0.133,0.031,0.095-0.024,0.115,0.124C2.524,2.226,2.53,2.325,2.53,2.392C2.302,2.513,2.416,2.655,2.432,2.718
		c-0.025,0.037-0.057,0.074-0.085,0.11c-0.032,0.04-0.064,0.074-0.088,0.118C2.214,2.942,2.199,2.935,2.139,2.935
		C2.136,2.898,2.116,2.843,2.105,2.806c-0.024-0.083-0.077-0.2-0.052-0.249C2.082,2.5,2.122,2.446,2.074,2.338L2.074,2.338z
		 M4.376,2.316c0-0.252,0.349-0.252,0.349,0c0,0.088-0.076,0.152-0.196,0.152C4.457,2.468,4.376,2.388,4.376,2.316L4.376,2.316z
		 M1.639,1.859C1.612,1.911,1.58,1.955,1.546,2.005L1.455,2.142C1.6,2.239,1.551,2.518,1.411,2.555
		C1.419,2.59,1.426,2.603,1.439,2.635c0.053,0.137-0.017,0.083,0.168,0.126c0.169-0.254,0.142-0.127,0.1-0.252
		C1.682,2.438,1.691,2.369,1.745,2.313C1.775,2.28,1.798,2.262,1.846,2.25c-0.019-0.082-0.104-0.326-0.108-0.38
		C1.689,1.871,1.674,1.876,1.639,1.859L1.639,1.859z M3.648,1.979c0.174,0,0.141,0.229,0.011,0.229
		C3.511,2.208,3.51,1.979,3.648,1.979L3.648,1.979z M2.595,2.012c0.033,0.009,0.111,0.106,0.139,0.133l0.13,0.142
		c0.051,0.05,0.087,0.084,0.132,0.14c0.086,0.107,0.117,0.071,0.099,0.15c-0.072,0-0.107-0.008-0.164-0.011L2.791,2.555
		C2.783,2.456,2.708,2.402,2.617,2.381C2.617,2.243,2.595,2.141,2.595,2.012L2.595,2.012z M3.845,2.001l0.185-0.142
		C4.07,1.888,4.15,1.944,4.235,1.903C4.257,1.935,4.28,1.969,4.3,2.001l0.065,0.097C4.303,2.193,4.29,2.188,4.29,2.316
		c0,0.133,0.101,0.187,0.163,0.228C4.452,2.568,4.448,2.595,4.444,2.612C4.434,2.653,4.441,2.645,4.4,2.655
		C4.336,2.67,4.335,2.667,4.278,2.696c-0.055-0.083-0.163-0.157-0.235-0.23L3.812,2.229C3.878,2.104,3.861,2.134,3.845,2.001
		L3.845,2.001z M2.986,1.751c0.028,0.105,0.172,0.124,0.282,0.065l0.193,0.198C3.42,2.125,3.45,2.16,3.497,2.229
		C3.488,2.239,3.487,2.24,3.478,2.253L3.414,2.342c-0.027,0.04-0.068,0.08-0.08,0.126C3.253,2.429,3.236,2.461,3.16,2.479
		L2.979,2.28C2.955,2.256,2.937,2.24,2.913,2.215l-0.12-0.13C2.761,2.049,2.697,1.982,2.66,1.958
		c0.007-0.029,0.008-0.02,0.016-0.049c0.009-0.033,0-0.028,0.016-0.049c0.011-0.014,0.07-0.034,0.089-0.041
		C2.83,1.799,2.932,1.752,2.986,1.751L2.986,1.751z M1.824,1.838c0.002,0.06,0.051,0.181,0.07,0.245
		C1.948,2.27,1.929,2.225,2.02,2.272l0.315-0.293C2.289,1.892,2.291,1.918,2.291,1.805c-0.092,0-0.283-0.063-0.37-0.065
		C1.896,1.778,1.874,1.825,1.824,1.838L1.824,1.838z M2.378,1.859c0-0.166,0.228-0.146,0.228-0.011c0,0.018-0.02,0.066-0.03,0.079
		C2.518,1.997,2.378,1.959,2.378,1.859L2.378,1.859z M4.192,1.827c-0.213,0-0.157-0.261-0.033-0.261
		c0.046,0,0.081-0.007,0.122,0.041C4.352,1.69,4.289,1.827,4.192,1.827L4.192,1.827z M1.585,1.664c0-0.218,0.261-0.144,0.261-0.054
		c0,0.072-0.007,0.174-0.13,0.174C1.65,1.784,1.585,1.729,1.585,1.664L1.585,1.664z M3.041,1.653c0,0.149,0.228,0.128,0.228,0.021
		C3.269,1.458,3.041,1.529,3.041,1.653L3.041,1.653z M2.964,1.664c0-0.055,0.001-0.056,0.011-0.098l-0.271-0.25
		C2.588,1.395,2.5,1.362,2.399,1.295L2.16,1.446C2.079,1.495,2.005,1.543,1.921,1.588c0.015,0.03,0.011,0.021,0.011,0.065
		L2.324,1.74C2.408,1.614,2.59,1.62,2.671,1.773L2.964,1.664L2.964,1.664z M3.345,1.556c0.048,0.107,0,0.149,0,0.195
		c0,0.012,0.164,0.171,0.185,0.185c0.082-0.043,0.167-0.072,0.25,0C3.814,1.912,3.845,1.891,3.88,1.862
		c0.033-0.028,0.057-0.047,0.095-0.068c-0.038-0.164-0.009-0.095,0-0.195c-0.09-0.06-0.158-0.146-0.25-0.207
		c-0.08,0.07-0.169,0.07-0.26,0.021C3.433,1.461,3.382,1.5,3.345,1.556L3.345,1.556z M3.573,1.36c-0.165,0-0.154-0.261-0.012-0.261
		c0.074,0,0.152,0.02,0.152,0.12C3.714,1.312,3.665,1.36,3.573,1.36L3.573,1.36z M2.758,1.24c0.042-0.048,0.026-0.021,0.119-0.021
		C2.994,1.22,3.26,1.251,3.366,1.251C3.368,1.301,3.382,1.328,3.399,1.36c-0.012,0.008-0.11,0.116-0.12,0.131
		C3.201,1.438,3.154,1.437,3.068,1.474C3.026,1.492,3.076,1.491,3.03,1.491C3.003,1.491,2.766,1.251,2.758,1.24L2.758,1.24z
		 M2.573,1.273c-0.179,0-0.187-0.25-0.018-0.268c0.063-0.006,0.148,0.053,0.148,0.116C2.704,1.189,2.64,1.273,2.573,1.273
		L2.573,1.273z M2.345,1.121c0,0.054,0.01,0.048,0.011,0.098L1.889,1.501C1.793,1.358,1.498,1.387,1.498,1.653
		c0,0.071,0.036,0.109,0.065,0.152C1.514,1.898,1.447,1.991,1.39,2.077c-0.24-0.115-0.517,0.212-0.28,0.432
		C1.17,2.565,1.221,2.577,1.335,2.577C1.35,2.641,1.388,2.69,1.39,2.761c-0.147,0.04-0.172,0.402,0.13,0.402
		c0.044,0,0.071-0.012,0.101-0.03c0.032-0.02,0.052-0.029,0.063-0.068c0.042,0,0.223,0.042,0.25,0.054l0.015,0.094
		c0.011,0.029,0.028,0.062,0.047,0.083C2.036,3.342,2.099,3.37,2.183,3.37c0.001,0.075,0.085,0.283,0.086,0.358
		c-0.037,0.011-0.05,0.03-0.067,0.063C2.129,3.929,2.199,4.068,2.303,4.107c0.182,0.067,0.314-0.059,0.314-0.217
		c0-0.067-0.031-0.097-0.054-0.141c0.018-0.066,0.104-0.136,0.12-0.196c0.18,0.096,0.36-0.038,0.369-0.141
		c0.058,0.004,0.187,0.053,0.25,0.054c0,0.294,0.434,0.307,0.434,0.011c0-0.07-0.03-0.086-0.043-0.141l0.073-0.079
		c0.072,0.021,0.007,0.024,0.133,0.024c0.117,0,0.206-0.108,0.206-0.261C4.135,3.02,4.214,3,4.235,2.989
		c0.088,0.166,0.36,0.133,0.401-0.066C4.661,2.802,4.603,2.72,4.518,2.674c0.012-0.024,0.021-0.082,0.021-0.12
		c0.094,0,0.139-0.014,0.188-0.062C4.905,2.32,4.78,2.034,4.583,2.034c-0.083,0-0.085-0.008-0.142,0.021L4.322,1.871
		C4.367,1.803,4.43,1.739,4.395,1.625C4.346,1.47,4.188,1.417,4.029,1.523L3.906,1.428C3.884,1.407,3.877,1.396,3.851,1.375
		C3.743,1.293,3.812,1.312,3.807,1.211C3.805,1.177,3.79,1.126,3.774,1.104c-0.077-0.12-0.288-0.177-0.408,0.05
		c-0.055,0-0.074-0.011-0.141-0.011l-0.38-0.022c-0.108-0.005-0.02-0.035-0.122-0.138C2.566,0.823,2.345,0.968,2.345,1.121z"/>
	<path fill-rule="evenodd" clip-rule="evenodd" fill="#00cfe8" d="M3.388,5.434H1.78c-0.075,0-0.098-0.048-0.098-0.119
		c0-0.157,0.019-0.542-0.02-0.644c-0.107-0.286-0.473-0.08-0.679-0.2C0.895,4.418,0.834,4.325,0.835,4.185
		c0.001-0.148,0-0.297,0-0.445c0-0.073,0.007-0.147-0.015-0.203c-0.117-0.291-0.42-0.035-0.42-0.275
		c0-0.023,0.225-0.374,0.254-0.419C0.679,2.806,0.696,2.775,0.717,2.74c0.191-0.32,0.071-0.226,0.154-0.704
		c0.054-0.313,0.183-0.58,0.353-0.831c0.06-0.087,0.161-0.205,0.233-0.278c0.158-0.159,0.401-0.324,0.605-0.416
		c0.415-0.185,0.893-0.238,1.342-0.126C3.738,0.47,4.002,0.609,4.274,0.821l0.138,0.123C4.436,0.968,4.455,0.986,4.477,1.01
		l0.175,0.217c0.043,0.057,0.063,0.098,0.101,0.16c0.04,0.066,0.057,0.098,0.089,0.172c0.324,0.753,0.225,1.504-0.256,2.149
		C4.424,3.923,4.327,3.976,4.141,4.133L3.988,4.274c-0.223,0.267-0.22,0.271-0.347,0.532C3.607,4.876,3.587,4.942,3.566,5.024
		C3.495,5.313,3.547,5.434,3.388,5.434L3.388,5.434z M3.725,0.382C3.727,0.384,3.73,0.386,3.731,0.386
		C3.733,0.387,3.737,0.389,3.738,0.39C3.74,0.391,3.744,0.393,3.746,0.394c0.271,0.139,0.31,0.13,0.602,0.365
		C4.582,0.948,4.76,1.193,4.895,1.461C5.237,2.146,5.171,2.991,4.75,3.624C4.449,4.075,4.206,4.136,4.009,4.381
		C3.985,4.41,3.973,4.418,3.948,4.451c-0.121,0.162-0.146,0.21-0.23,0.388C3.605,5.078,3.606,5.362,3.573,5.434
		c0.307,0,0.241,0.014,0.288-0.244c0.038-0.21,0.112-0.417,0.216-0.588c0.031-0.053,0.07-0.11,0.104-0.157
		C4.327,4.242,4.407,4.196,4.58,4.051c0.273-0.231,0.414-0.409,0.582-0.743c0.194-0.385,0.241-0.92,0.145-1.347
		C5.19,1.454,4.964,1.132,4.607,0.814c-0.134-0.119-0.319-0.23-0.488-0.305C4.036,0.472,3.826,0.385,3.725,0.382z M3.725,0.382
		C3.708,0.372,3.75,0.372,3.692,0.372C3.707,0.383,3.669,0.382,3.725,0.382L3.725,0.382z M3.671,0.361
		C3.669,0.362,3.674,0.364,3.674,0.364L3.671,0.361L3.671,0.361z M0.314,3.25c0,0.076,0,0.14,0.091,0.191
		c0.11,0.063,0.273-0.034,0.332,0.124c0.019,0.052,0.011,0.147,0.011,0.217c0,0.201-0.033,0.498,0.052,0.633
		c0.016,0.024,0.029,0.04,0.047,0.061c0.128,0.143,0.217,0.132,0.444,0.132c0.354,0,0.294,0.031,0.293,0.619
		c0,0.077-0.006,0.152,0.026,0.203c0.022,0.035,0.084,0.091,0.137,0.091h2.021c0.071,0,0.133-0.071,0.151-0.131l0.037-0.245
		C4.003,4.89,4.162,4.571,4.336,4.394c0.077-0.08,0.093-0.117,0.214-0.21c0.37-0.28,0.639-0.62,0.787-1.071l0.083-0.34
		C5.496,2.22,5.408,1.754,5.126,1.284C5.093,1.229,5.052,1.17,5.012,1.116c-0.023-0.03-0.039-0.049-0.063-0.079
		C4.566,0.565,3.942,0.241,3.312,0.241c-0.376,0-0.619-0.016-0.98,0.084C2.236,0.353,2.161,0.381,2.075,0.417l-0.238,0.12
		C1.796,0.562,1.768,0.575,1.729,0.602c-0.13,0.087-0.137,0.1-0.245,0.19C1.068,1.144,0.797,1.684,0.749,2.273
		C0.721,2.621,0.786,2.451,0.574,2.804l-0.202,0.32C0.352,3.155,0.314,3.207,0.314,3.25z"/>
	<path fill-rule="evenodd" clip-rule="evenodd" fill="#00cfe8" d="M0.444,5.15c0-0.151,0.25-0.174,0.25,0.011
		C0.694,5.322,0.444,5.319,0.444,5.15L0.444,5.15z M0.357,5.118v0.055c0,0.252,0.424,0.268,0.424-0.012
		c0-0.073-0.019-0.112-0.055-0.151C0.59,4.867,0.357,4.975,0.357,5.118z"/>
	<path fill-rule="evenodd" clip-rule="evenodd" fill="#00cfe8" d="M0.673,0.806c0,0.08-0.01,0.105,0.043,0.141
		c0.078-0.021,0.06-0.113,0.043-0.185C0.735,0.756,0.726,0.748,0.703,0.76C0.689,0.767,0.673,0.786,0.673,0.806z"/>
	<path fill-rule="evenodd" clip-rule="evenodd" fill="#00cfe8" d="M0.673,0.382c0,0.156,0.097,0.093,0.097,0.055
		c0-0.028,0.008-0.141-0.032-0.141C0.681,0.296,0.673,0.327,0.673,0.382z"/>
	<path fill-rule="evenodd" clip-rule="evenodd" fill="#00cfe8" d="M5.213,4.728c-0.047,0-0.076,0.033-0.102,0.062
		c-0.049,0.055-0.031,0.17,0.1,0.033c0.012-0.012,0.026-0.024,0.031-0.045C5.247,4.75,5.229,4.728,5.213,4.728z"/>
	<path fill-rule="evenodd" clip-rule="evenodd" fill="#00cfe8" d="M4.963,5.14c0,0.076-0.016,0.152,0.044,0.152
		c0.069,0,0.042-0.143,0.032-0.185C5.007,5.104,4.963,5.09,4.963,5.14z"/>
	<path fill-rule="evenodd" clip-rule="evenodd" fill="#00cfe8" d="M5.181,5.01h0.108c0.054,0,0.054-0.087,0-0.087H5.181
		C5.131,4.923,5.118,5.01,5.181,5.01z"/>
	<path fill-rule="evenodd" clip-rule="evenodd" fill="#00cfe8" d="M0.846,0.611C0.865,0.68,0.9,0.665,0.999,0.665
		c0.058,0,0.058-0.086,0-0.086H0.89C0.875,0.578,0.878,0.567,0.846,0.611z"/>
	<path fill-rule="evenodd" clip-rule="evenodd" fill="#00cfe8" d="M0.401,0.611c0,0.069,0.046,0.054,0.142,0.054
		c0.049,0,0.065-0.086,0.011-0.086C0.447,0.578,0.401,0.563,0.401,0.611z"/>
	<path fill-rule="evenodd" clip-rule="evenodd" fill="#00cfe8" d="M4.681,4.966c0,0.06,0.076,0.044,0.152,0.044
		c0.042,0,0.032-0.036,0.032-0.076C4.823,4.924,4.681,4.896,4.681,4.966z"/>
	<path fill-rule="evenodd" clip-rule="evenodd" fill="#00cfe8" d="M4.963,4.684c0,0.136-0.015,0.162,0.076,0.142
		c0.017-0.07,0.017-0.104,0-0.174C5.005,4.644,4.963,4.633,4.963,4.684z"/>
	<path fill-rule="evenodd" clip-rule="evenodd" fill="#00cfe8" d="M5.082,5.097c0,0.028,0.033,0.05,0.052,0.068
		c0.031,0.03,0.032,0.04,0.079,0.051c0.026-0.039,0.054-0.047,0.005-0.091C5.196,5.104,5.154,5.053,5.126,5.053
		C5.101,5.053,5.082,5.071,5.082,5.097z"/>
	<path fill-rule="evenodd" clip-rule="evenodd" fill="#00cfe8" d="M0.64,0.741c0-0.026-0.018-0.044-0.044-0.044
		c-0.013,0-0.156,0.095-0.104,0.147S0.64,0.754,0.64,0.741z"/>
	<path fill-rule="evenodd" clip-rule="evenodd" fill="#00cfe8" d="M4.757,4.76c0.01,0.036,0.094,0.121,0.13,0.13
		c0.002-0.001,0.006-0.006,0.007-0.004S4.9,4.881,4.904,4.875C4.924,4.85,4.92,4.896,4.92,4.836c0-0.019-0.068-0.108-0.12-0.108
		C4.785,4.728,4.788,4.716,4.757,4.76z"/>
	<path fill-rule="evenodd" clip-rule="evenodd" fill="#00cfe8" d="M0.803,0.741c0,0.03,0.043,0.059,0.063,0.079
		c0.078,0.081,0.136,0.016,0.06-0.061c-0.019-0.02-0.05-0.063-0.079-0.063C0.821,0.697,0.803,0.715,0.803,0.741z"/>
	<path fill-rule="evenodd" clip-rule="evenodd" fill="#00cfe8" d="M0.477,0.415C0.494,0.477,0.64,0.6,0.64,0.491
		c0-0.039-0.089-0.104-0.12-0.12C0.519,0.374,0.515,0.373,0.515,0.376L0.477,0.415z"/>
	<path fill-rule="evenodd" clip-rule="evenodd" fill="#00cfe8" d="M0.803,0.491c0,0.097,0.111,0.022,0.163-0.076
		c-0.014-0.016-0.027-0.03-0.043-0.043C0.892,0.388,0.803,0.453,0.803,0.491z"/>
	<path fill-rule="evenodd" clip-rule="evenodd" fill="#00cfe8" d="M4.8,5.205c0.058,0,0.19-0.152,0.076-0.152
		C4.843,5.053,4.69,5.205,4.8,5.205z"/>
</g>
</svg>
