<?xml version="1.0" encoding="utf-8"?>
<!-- Generator: Adobe Illustrator 16.0.0, SVG Export Plug-In . SVG Version: 6.00 Build 0)  -->
<!DOCTYPE svg PUBLIC "-//W3C//DTD SVG 1.1//EN" "http://www.w3.org/Graphics/SVG/1.1/DTD/svg11.dtd">
<svg version="1.1" id="Layer_1" xmlns="http://www.w3.org/2000/svg" xmlns:xlink="http://www.w3.org/1999/xlink" x="0px" y="0px"
	 width="1000px" height="1000px" viewBox="0 0 800 800" enable-background="new 0 0 800 800" xml:space="preserve">
<g>
	<path fill-rule="evenodd" clip-rule="evenodd" fill="#ea5455" d="M253.428,511.652c-0.892-10.696-0.105-24.808-0.106-35.883
		V367.672c0-24.037-0.257-48.212,0.006-72.231c0.158-14.442,3.935-23.472,14.052-30.561c6.515-4.564,13.467-5.767,21.606-5.832
		c71.897-0.574,144.476,0.711,216.193,0.052c13.779-0.126,19.813,0.132,28.957,6.939c6.466,4.812,11.729,12.695,12.483,24.031
		c0.741,11.146,0.004,24.499-0.045,35.888l-0.258,108.098c-0.053,24.072,0.347,48.159,0.31,72.214
		c-0.036,23.018-12.96,36.088-36.057,36.165c-47.762,0.161-95.725-0.205-143.539-0.205c-23.96,0-48.3-0.419-72.214,0.095
		c-12.384,0.266-21.369-0.733-29.081-6.978C259.386,530.207,254.377,523.031,253.428,511.652L253.428,511.652z M283.561,251.286
		c-12.017,1.467-19.966,5.102-26.227,11.633c-5.646,5.889-11.56,14.612-11.864,26.238c-0.657,25.057-0.052,50.286-0.024,75.375
		l0.001,113.929c0,25.025-4.323,45.937,13.913,61.938c6.827,5.989,16.201,9.753,28.28,9.811l190.627,0.002
		c12.255,0,26.083,0.633,38.133-0.021c19.925-1.083,37.301-17.654,38.123-37.622c0.507-12.329,0.015-25.734-0.182-38.144
		c-0.578-36.663,0.108-76.949,0.157-113.928c0.017-12.708,0.022-25.417,0.021-38.125c0-10.722,1.075-27.763-0.474-37.637
		c-1.591-10.141-7.854-19.167-13.703-23.982c-7.494-6.17-15.481-9.335-28.419-9.556c-25.278-0.43-50.946-0.015-76.269-0.015
		C431.348,251.18,288.196,250.719,283.561,251.286L283.561,251.286z"/>
	<path fill-rule="evenodd" clip-rule="evenodd" fill="#ea5455" d="M450.212,363.985c-7.202-1.295-14.29-3.631-21.053-5.956
		c-7.409-2.548-17.202-7.904-23.76-12.12c-1.841-1.184-3.596-2.738-5.627-3.823l-13.629,8.821
		c-10.578,6.108-21.42,9.835-33.576,12.155c-2.466,0.47-2.801,0.179-3.026,2.331c-0.152,1.452,0.063,4.256,0.185,5.78
		c0.282,3.542,0.576,7.029,1.046,10.497c1.861,13.725,4.645,25.014,9.323,36.445c0.715,1.746,0.927,2.016,1.914,3.467
		c0.727,1.068,3.3,6.858,6.139,11.348c6.428,10.163,19.458,22.362,30.069,26.951c2.796,1.209,5.829-1.034,7.946-2.384
		c10.53-6.706,16.891-12.348,23.794-21.973C442.138,418.54,450.736,391.298,450.212,363.985L450.212,363.985z"/>
	<path fill-rule="evenodd" clip-rule="evenodd" fill="#ea5455" d="M494.598,404.477c0.812-7.487,2.58-9.464,4.227-15.226
		l-42.917,18.289l42.835,18.706c-1.383-5.074-4.114-8.893-4.009-15.427c14.812,0.175,29.004,2.125,37.849-13.042
		c3.589-6.155,3.422-13.333,3.386-21.582c-0.037-8.52-0.004-17.046-0.004-25.566c0-11.648,1.456-39.544-2.242-48.278
		c-2.4-5.667-7.028-10.115-12.337-12.771c-6.647-3.324-14.608-2.646-22.935-2.631c-33.657,0.058-67.272-0.147-100.92-0.373
		c-33.406-0.224-67.114-0.073-100.471-0.889c-3.691-0.09-9.433-0.978-9.487,3.038c-0.057,4.271,5.359,3.477,9.038,3.446
		c8.48-0.069,17.064,0.145,25.567,0.147c16.706,0.005,33.535,0.199,50.236,0.478c41.514,0.693,84.387,0.744,126.038,0.489
		c8.167-0.051,16.252-0.889,22.277,3.226c4.692,3.204,8.464,8.048,8.8,16.296c0.338,8.34,0.012,16.896,0.02,25.262
		c0.01,10.046,0.726,42.643-0.269,50.141c-0.915,6.905-5.875,12.055-10.72,14.373C511.957,405.739,502.407,404.517,494.598,404.477
		L494.598,404.477z"/>
	<path fill-rule="evenodd" clip-rule="evenodd" fill="#ea5455" d="M304.634,396.5c-7.926,0.325-15.391-0.585-21.911,2.617
		c-5.238,2.573-9.992,7.425-12.283,12.805c-3.736,8.776-2.152,36.55-2.152,48.148c0,8.223,0.019,16.448,0,24.67
		c-0.02,8.103-0.591,15.986,3.025,22.164c7.857,13.425,17.291,13.758,36.51,13.604c48.67-0.388,100.401,0.108,149.362,0.721
		c16.457,0.206,33.271-0.058,49.678,0.475c3.322,0.108,8.715,0.942,9.564-2.059c1.39-4.903-4.406-4.417-8.109-4.38
		c-24.554,0.246-50.23-0.326-74.906-0.435c-33.191-0.146-66.382-0.298-99.574-0.525c-9.641-0.066-41.431,0.983-47.758-1.977
		c-14.439-6.755-11.501-20.877-11.546-38.803c-0.042-16.732-0.042-33.513,0.078-50.245c0.058-8.102,3.594-13.628,8.308-16.826
		c6.063-4.114,13.241-3.92,21.717-3.435c-0.503,6.274-2.363,10.083-4.199,15.097c2.125-0.212,17.911-7.538,21.425-9.039
		l21.447-9.627l-42.7-18.119C301.744,386.11,303.889,388.272,304.634,396.5L304.634,396.5z"/>
	<path fill-rule="evenodd" clip-rule="evenodd" fill="#ea5455" d="M450.212,363.985c0.524,27.313-8.074,54.555-20.256,71.539
		c-6.903,9.625-13.264,15.267-23.794,21.973c-2.117,1.35-5.149,3.593-7.946,2.384c-10.61-4.589-23.641-16.788-30.069-26.951
		c-2.839-4.489-5.412-10.279-6.139-11.348c-0.987-1.451-1.199-1.721-1.914-3.467c-4.678-11.431-7.462-22.72-9.323-36.445
		c-0.47-3.468-0.764-6.955-1.046-10.497c-0.121-1.523-0.337-4.328-0.185-5.78c0.225-2.152,0.56-1.86,3.026-2.331
		c12.156-2.32,22.998-6.047,33.576-12.155l13.629-8.821c2.031,1.085,3.786,2.64,5.627,3.823c6.558,4.216,16.351,9.572,23.76,12.12
		C435.922,360.354,443.01,362.689,450.212,363.985L450.212,363.985z M401.497,333.653c-6.439,1.869-15.767,13.696-40.292,21.012
		c-15.255,4.55-22.826-4.417-14.648,40.664c0.844,4.65,7.644,26.826,9.063,29.046c1.525,2.384,0.124-1.25,2.96,4.679
		c2.554,5.337,8.545,14.45,12.683,18.267c1.6,1.477,2.265,2.269,3.851,3.769c5.294,5.01,17.127,14.539,23.447,15.582
		c9.249,1.525,29.238-17.311,35.408-25.771c13.632-18.688,21.857-45.359,22.316-70.104c0.073-3.997,1.913-10.556-1.958-12.369
		c-1.575-0.738-10.343-2.431-12.709-2.989c-2.497-0.589-2.725-1.235-5.72-1.91c-2.177-0.491-3.73-1.094-5.765-1.866
		c-6.299-2.389-15.088-6.784-20.433-10.506C405.674,338.352,404.032,338.016,401.497,333.653L401.497,333.653z"/>
</g>
</svg>
