<?xml version="1.0" encoding="utf-8"?>
<!-- Generator: Adobe Illustrator 16.0.0, SVG Export Plug-In . SVG Version: 6.00 Build 0)  -->
<!DOCTYPE svg PUBLIC "-//W3C//DTD SVG 1.1//EN" "http://www.w3.org/Graphics/SVG/1.1/DTD/svg11.dtd">
<svg version="1.1" id="Layer_1" xmlns="http://www.w3.org/2000/svg" xmlns:xlink="http://www.w3.org/1999/xlink" x="0px" y="0px"
	 width="612px" height="792px" viewBox="0 0 612 792" enable-background="new 0 0 612 792" xml:space="preserve">
<g>
	<path fill-rule="evenodd" clip-rule="evenodd" fill="#E31E24" d="M360.469,501.508c-2.544-10.18,12.322-12.943,14.242-3.72
		C376.803,507.836,362.518,509.711,360.469,501.508L360.469,501.508L360.469,501.508z M420.62,398.131v14.105
		c-1.237,19.637-7.651,38.616-19,57.257c-0.89,1.459-1.553,2.398-2.549,3.719c-4.11,5.453-12.938,16.73-17.974,20.103
		c0.932,3.996,1.879,5.231,0.765,9.921c-1.824,7.682-12.188,14.691-21.654,9.041c-3.659-2.184-1.657-3.135-7.867-0.002
		c-28.212,14.228-66.759,14.238-96.219,1.425l-8.054-3.516c-5.997,4.016-11.887,5.107-18.329,0.497
		c-2.29-1.639-4.115-3.819-5.133-6.918c-4.236-12.901,7.034-3.154-8.229-18.28c-2.635-2.611-5.226-5.867-7.488-8.898
		c-15.438-20.688-24.442-46.56-24.442-72.92c-6.419-1.496-10.02-6.82-10.604-12.496v-3.282c0.374-3.648,2.004-7.167,4.949-9.638
		c6.851-5.747,8.762-0.502,10.435-6.436c0.28-0.991,0.49-1.481,0.799-2.575c1.315-4.661,3.75-10.196,5.645-14.599
		c1.483-3.447,2.785-5.813,4.528-8.969c3.008-5.447,3.378-6.078,7.388-5.148c2.688,4.907,1.793,4.081-1.074,9.062
		c-3.697,6.423-10.136,20.262-10.835,27.088c2.781,2.483,3.203,2.84,5.639,5.771c6.071-0.323,14.918-2.556,21.75-3.313
		c7.844-0.868,15.811-1.311,23.775-1.364c0.81-2.639,3.662-5.394,6.171-6.75c4.226-2.286,6.644-1.648,11.592-1.339
		c0.91-2.288,4.08-5.738,5.741-7.844c6.798-8.625,16.653-16.764,19.219-19.863c-1.524-5.041-1.662-5.148-0.97-10.76
		c-2.75-1.247-5.818-3.13-8.728-4.654c-7.152-3.746-20.999-9.66-28.492-11.131c-1.277,3.19-4.781,6.11-8.574,7.283
		c-6.668,2.061-8.401-0.355-13.083-1.885c-2.357,2.398-4.604,4.655-6.91,6.979c-4.222,4.252-4.563,5.614-8.479,3.705
		c-1.534-2.139-1.996-2.873-0.306-5.252c1.615-2.275,8.891-8.26,10.911-11.275c-0.75-3.214-2.04-6.523-0.443-11.047
		c2.169-6.149,9.226-10.945,16.352-9.714c4.17,0.719,5.826,2.468,8.672,4.375c27.827-14.724,64.688-16.282,94.401-5.233
		l11.155,4.751c3.076-2.061,3.911-3.532,8.935-4.086c3.173-0.349,7.406,1.181,9.398,2.622c9.14,6.614,6.09,13.964,5.767,17.852
		c3.13,2.096,5.117,5.011,7.71,6.748c4.218-0.982,5.812-2.256,10.751-0.628c7.391,2.437,12.802,11.26,9.238,19.653
		c-2.565,6.041-3.892,0.677,2.183,12.786c1.407,2.806,2.706,5.687,3.801,8.731C417.317,374.202,419.889,386.295,420.62,398.131
		L420.62,398.131L420.62,398.131z M231.222,500.062c-0.569-4.563,2.166-7.823,5.958-8.476c4.3-0.738,8.016,2.433,8.567,6.087
		C247.245,507.59,232.358,509.181,231.222,500.062L231.222,500.062L231.222,500.062z M367.664,424.408l1.84-1.438
		c4.837,0.929,20.187,15.016,25.897,19.889c2.7,2.302,5.474,5.459,8.003,7.357c-1.738,7.419-14.685,25.425-20.561,31.358
		l-6.567,5.986c-1.166-0.52-2.582-1.349-3.759-1.895c0.283-4.223,0.668-8.293,0.798-12.59c0.129-4.221,1.286-10.482-2.915-11.01
		c-5.458-0.685-4.176,5.249-4.275,9.559c-0.103,4.392-0.389,8.709-0.829,13.014L364.633,485c-3.053,1.388-6.052,1.84-8.716,5.784
		c-2.989,4.429-3.001,6.686-2.618,12.651c-4.125,3.092-16.6,7.224-22.639,8.859c-18.229,4.938-37.176,4.623-55.432,0.109
		c-9.034-2.234-15.04-5.341-22.831-8.508c1.331-9.066-1.326-4.364,15.839-12.093c4.926-2.218,10.095-4.704,14.632-7.078
		c9.425-4.932,18.938-11.11,26.627-16.743l23.625-19.755c1.869-1.797,3.565-3.395,5.318-5.278c1.886-2.022,3.336-3.948,5.279-5.813
		l5.001-5.599c1.535-2.008,3.649-4.15,4.907-6.104c2.867,0.693,3.779,1.085,7.154,1.371c0.84,4.041,1.859,7.743,2.662,11.914
		c0.731,3.794,0.349,9.918,5.355,9.021C374.861,446.654,368.899,432.516,367.664,424.408L367.664,424.408L367.664,424.408z
		 M250.96,490.891c-5.977-6.391-4.913-4.33-10.912-6.805c-1.287-17.534-0.844-31.042,2.459-47.938
		c1.737-8.886,8.798-32.556,13.272-38.122c4.735,0.669,9.005,0.145,12.431-2.176c4.161-2.819,3.835-4.928,6.367-9.129
		c12.24,0.902,27.079,4.865,38.138,8.208c5.895,1.782,11.383,3.925,16.995,6.142c4.014,1.584,12.826,5.237,15.862,7.414
		c-0.234,7.107-0.289,6.9,2.511,12.234c-5.864,7.846-13.011,15.471-19.638,21.872c-14.63,14.137-30.02,25.391-48.462,35.412
		C273.368,481.599,258.379,489.198,250.96,490.891L250.96,490.891L250.96,490.891z M352.884,414.268
		c-2.828-10.123,12.004-12.879,14.115-4.194C369.416,420.016,355.321,422.996,352.884,414.268L352.884,414.268L352.884,414.268z
		 M370.377,401.735c0.86-2.911,4.979-8.833,6.638-12.269c4.956-10.272,7.335-14.959,11.515-26.087
		c1.543-4.106,3.034-10.271,4.842-13.948l5.213-0.801c1.141,2.903,3.28,6.261,4.789,9.632c8.626,19.287,11.826,40.096,9.051,61.293
		c-1.235,9.438-3.554,15.436-5.768,23.68l-15.626-13.839c-2.728-2.335-5.451-4.332-8.387-6.556c-2.805-2.123-5.766-4.448-8.74-6.137
		C375.223,408.148,374.05,407.281,370.377,401.735L370.377,401.735L370.377,401.735z M239.474,385.43
		c1.299-0.711,3.912-0.757,5.703-0.577l0.511,1.479c0.257,3.474,2.106,5.413,3.569,7.69c-0.941,2.966-2.881,6.533-4.168,9.561
		c-7.207,16.957-11.695,35.916-12.758,54.526c-0.556,9.753,0.29,17.584,0.486,27.01c-1.157,0.996-2.687,1.863-4.202,2.478
		c-3.017-3.875-7.705-7.467-13.822-15.951c-12.777-17.722-22.836-44.17-22.759-67.501l4.205-2.186
		c4.337-2.575,6.417-6.704,6.738-12.083C207.048,388.464,234.84,385.125,239.474,385.43L239.474,385.43L239.474,385.43z
		 M181.303,391.614c-2.853-10.014,11.907-12.571,14.093-4.18C198.086,397.766,183.742,400.176,181.303,391.614L181.303,391.614
		L181.303,391.614z M252.648,384.866c-1.202-9.979,13.774-10.985,14.582-1.843C268.113,393.006,253.743,393.959,252.648,384.866
		L252.648,384.866L252.648,384.866z M294.339,347.689c2.947,0.721,3.966,2.204,8.189,2.254c3.652,0.043,5.572-1.096,8.198-2.303
		c3.366,1.97,13.971,12.927,17.527,17.283c1.899,2.328,3.421,4.21,5.35,6.705c3.372,4.363,6.419,8.975,9.541,14.083l6.209,11.122
		c4.944,9.579-5.66,2.27-16.151-2.147c-14.956-6.295-32.162-11.123-48.34-13.849c-2.738-0.462-8.429-0.94-10.673-1.65
		c-0.091-0.09-0.213-0.372-0.249-0.293l-0.659-0.912c-0.303-0.497-0.505-1.024-0.833-1.597c-0.644-1.123-1.367-1.891-2.005-2.754
		C274.616,366.786,288.503,352.436,294.339,347.689L294.339,347.689L294.339,347.689z M390.802,327.863
		c9.758-3.358,13.457,10.994,5.009,13.88C386.205,345.023,381.777,330.969,390.802,327.863L390.802,327.863L390.802,327.863z
		 M300.386,328.468c9.705-3.597,13.206,11.071,4.858,13.828C296.141,345.301,290.823,332.013,300.386,328.468L300.386,328.468
		L300.386,328.468z M386.011,347.753c-1.421,8.446-10.761,29.602-15.371,38.215c-2.112,3.946-4.718,8.065-6.501,11.854l-6.626-0.458
		c-3.52-9.315-12.959-23.389-18.124-30.076c-3.54-4.582-18.213-21.942-23.489-24.743c0.74-5.521,1.778-4.65,0.942-11.406
		c3.771-1.295,23.571-13.464,35.839-15.257c1.248,3.19,4.582,5.941,8.88,7.066c6.764,1.77,9.055-0.862,13.271-2.644
		c2.411,2.187,3.823,2.939,6.196,5.757c-0.604,2.58-3.638,5.852-1.834,12.472C380.663,343.929,382.969,344.967,386.011,347.753
		L386.011,347.753L386.011,347.753z M363.177,301.746c9.499-3.164,13.148,11.763,4.301,14.122
		C357.692,318.477,354.105,304.768,363.177,301.746L363.177,301.746L363.177,301.746z M236.26,301.924
		c9.22-3.403,13.73,10.95,4.478,13.942C231.939,318.712,226.653,305.47,236.26,301.924L236.26,301.924L236.26,301.924z
		 M252.737,305.118c3.331-1.176,7.042-3.206,10.76-4.597c20.924-7.827,43.417-9.249,65.26-4.025
		c12.091,2.892,12.789,4.317,22.391,7.971c-0.043,0.428-0.354,3.032-0.429,3.263c-0.433,1.316-0.142,1.114-2.144,1.721
		c-9.229,2.801-17.518,6.203-26.037,10.572c-2.737,1.404-7.113,4.127-9.535,4.988c-4.099-5.033-13.724-6.319-20.527,0.022
		c-2.299-0.733-6.933-3.73-9.488-4.981c-3.34-1.634-5.922-2.945-9.452-4.507c-7.48-3.311-16.476-5.672-20.446-7.461L252.737,305.118
		L252.737,305.118L252.737,305.118z"/>
	<path fill-rule="evenodd" clip-rule="evenodd" fill="#E31E24" d="M390.802,327.863c-9.024,3.105-4.597,17.16,5.009,13.88
		C404.26,338.857,400.56,324.505,390.802,327.863L390.802,327.863L390.802,327.863z"/>
	
		<path fill-rule="evenodd" clip-rule="evenodd" fill="#E31E24" stroke="#E31E24" stroke-width="0.1621" stroke-miterlimit="22.9256" d="
		M363.177,301.746c-9.072,3.022-5.484,16.731,4.301,14.122C376.325,313.508,372.676,298.583,363.177,301.746L363.177,301.746
		L363.177,301.746z"/>
	<path fill-rule="evenodd" clip-rule="evenodd" fill="#E31E24" d="M236.26,301.924c-9.607,3.546-4.321,16.788,4.478,13.942
		C249.99,312.874,245.48,298.521,236.26,301.924L236.26,301.924L236.26,301.924z"/>
	
		<path fill-rule="evenodd" clip-rule="evenodd" fill="#E31E24" stroke="#E31E24" stroke-width="0.1621" stroke-miterlimit="22.9256" d="
		M300.386,328.468c-9.563,3.544-4.244,16.833,4.858,13.828C313.592,339.539,310.091,324.871,300.386,328.468L300.386,328.468
		L300.386,328.468z"/>
	<path fill-rule="evenodd" clip-rule="evenodd" fill="#E31E24" d="M352.884,414.268c2.438,8.729,16.532,5.748,14.115-4.194
		C364.889,401.389,350.057,404.145,352.884,414.268L352.884,414.268L352.884,414.268z"/>
	<path fill-rule="evenodd" clip-rule="evenodd" fill="#E31E24" d="M231.222,500.062c1.136,9.119,16.023,7.528,14.526-2.389
		c-0.552-3.654-4.268-6.826-8.567-6.087C233.388,492.237,230.653,495.499,231.222,500.062L231.222,500.062L231.222,500.062z"/>
	<path fill-rule="evenodd" clip-rule="evenodd" fill="#E31E24" d="M360.469,501.508c2.049,8.203,16.334,6.329,14.242-3.72
		C372.791,488.564,357.925,491.328,360.469,501.508L360.469,501.508L360.469,501.508z"/>
	<path fill-rule="evenodd" clip-rule="evenodd" fill="#E31E24" d="M181.303,391.614c2.439,8.562,16.783,6.151,14.093-4.18
		C193.21,379.043,178.45,381.6,181.303,391.614L181.303,391.614L181.303,391.614z"/>
	<path fill-rule="evenodd" clip-rule="evenodd" fill="#E31E24" d="M252.648,384.866c1.094,9.094,15.465,8.141,14.582-1.843
		C266.422,373.881,251.447,374.888,252.648,384.866L252.648,384.866L252.648,384.866z"/>
	<path fill-rule="evenodd" clip-rule="evenodd" fill="#667A82" d="M245.688,386.333l-0.511-1.48c-1.79-0.18-4.403-0.134-5.702,0.577
		l5.762,0.331C245.29,385.828,245.594,386.203,245.688,386.333L245.688,386.333L245.688,386.333z"/>
	<path fill-rule="evenodd" clip-rule="evenodd" fill="#E31E24" d="M172.487,426.405c22.726-2.841,40.75,14.252,43.262,33.914
		c2.881,22.558-13.999,41.11-33.515,43.603c-23.036,2.942-41.316-13.686-43.941-33.563
		C135.183,446.822,152.363,428.921,172.487,426.405L172.487,426.405L172.487,426.405z M159.718,272.714
		c-0.146-6.041-0.98-19.099,0.945-23.653c4.445-1.451,78.18-1.459,82.687-0.011c1.927,4.592,1.094,17.599,0.946,23.664
		c1.813,57.368,1.429,51.513-10.794,51.459l-69.047,0.02c-3.031-0.274-2.221,0.002-3.743-1.62
		C158.199,319.08,159.488,280.118,159.718,272.714L159.718,272.714L159.718,272.714z M417.968,266.054
		c23.593-5.313,42.704,11.811,46.342,30.539c4.556,23.449-11.472,41.429-29.584,45.673c-23.931,5.607-42.905-11.438-46.916-29.89
		C382.532,288.088,399.395,270.237,417.968,266.054L417.968,266.054L417.968,266.054z M152.156,279.118
		c-0.05,9.248-0.013,18.502-0.02,27.75c-0.009,10.701-1.329,15.715,3.925,22.482c4.655,1.908,6.023,2.074,12.097,2.379
		c-0.871,2.653-5.772,13.807-7.707,15.431c0.525,1.657,1.031,1.415-0.452,1.415c-0.295,2.642-6.441,19.124-8.683,35.109
		c-1.049,7.484-1.065,13.08-1.066,21.434c-0.001,14.533,0.509,9.091,1.5,20.999c-21.217,11.228-32.742,49.028-5.822,74.073
		c5.624,5.233,15.947,10.889,26.072,11.555c14.412,0.924,15.062-1.857,21-2.293c12.546,13.239,30.995,25.406,48.518,33.113
		c2.773,1.22,5.913,1.903,7.728,3.87c2.936-0.056,21.282,5.614,28.183,6.704c25.25,3.987,52.543,1.549,76.329-7.555
		c3.785-1.449,9.816-4.534,13.37-5.163c2.079,6.871,6.426,11.438,10.455,15.374c2.35,2.294,3.99,3.901,7.009,5.717
		c2.464,1.483,6.203,2.556,7.724,4.854c3.913,0.295,6.685,1.749,10.732,2.204c18.631,2.096,33.688-4.597,44.647-19.01
		c3.424-4.504,7.055-11.661,7.055-19.195l-2.25-1.473l-3.956,0.607c-3.919,8.509-3.664,11.521-9.74,18.66
		c-3.628,4.264-9.767,8.988-17.272,11.248c-14.713,4.428-30.403,0.656-40.548-10.763c-0.095-0.107-0.252-0.279-0.34-0.386
		c-0.954-1.146-0.224,0.045-0.88-1.247c-2.386-2.143-4.677-5.863-6.178-9.897l0.822-0.775c0.112-0.093,0.299-0.262,0.426-0.36
		l13.076-7.849c0.946-1.02,1.455-1.524,2.848-2.523c1.383-0.992,1.886-1.364,3.224-1.921c1.414-1.719,7.279-6.812,9.16-7.651
		c1.676-2.808,6.458-6.364,9.088-9.438c1.576-1.842,2.933-3.136,4.618-5.117c1.637-1.923,2.118-2.83,4.151-4.726
		c1.244-2.993,4.26-5.639,6.109-9.354l4.867,3.124c3.731,1.855,8.519,7.484,10.845,11.292c1.53,2.508,2.704,4.802,3.665,7.566
		c1.369,3.945,1.014,5.172,5.266,5.702c1.793-0.549,1.908,0.193,2.77-2.269c0.847-2.42,0.143-3.586-0.727-4.95
		c-3.674-14.452-16.199-22.021-17.048-23.96c-2.328-0.9-3.203-1.14-5.021-3.04c1.95-4.617,5.075-9.454,7.432-14.827
		c1.158-2.641,5.286-14.206,6.914-15.838c-0.092-2.285,0.766-5.522,1.929-7.268c0.272-3.854,1.684-7.279,2.458-11.359
		c1.723-9.068,2.007-15.355,2.752-24.249c0.666-7.915-2.412-30.558-4.019-37.901l-4.5-15.75c-0.869-2.271-1.368-3.102-1.941-5.558
		c7.925-4.193,13.819-6.659,19.833-14.667c15.871-21.137,12.191-48.098-4.254-63.162c-3.334-3.054-6.663-5.022-10.329-7.46
		c-6.322-1.904-9.303-4.188-17.21-4.941c-18.019-1.719-38.277,8.736-43.236,20.739c-3.598-1.226-8.725-5.198-12.703-7.355
		c-13.612-7.384-25.484-12.041-41.449-15.59c-14.825-3.296-58.74-5.653-67.042,1.733l0.094,4.608
		c3.942,2.262,7.607,0.351,15.099-0.703c16.542-2.329,33.871-1.869,50.456,1.75c13.439,2.932,43.726,14.208,51.104,22.8
		c-3.554,7.205-4.063,16.631-3.175,25.741l1.025,6.568l2.616,5.141c7.678,17.795,19.4,20.076,26.174,24.907
		c10.861,1.735,12.098,3.06,24.747,1.856c2.496,3.168,4.093,9.339,4.976,13.782l1.966,6.875c0.86,2.985,1.212,4.026,0.969,7.087
		c3.515,4.285,3.629,47.417-0.023,51.499c0.149,3.1-0.13,4.29-0.988,7.173c-2.218,9.785-5.979,20.09-10.042,28.49
		c-2.131,4.409-3.954,7.93-6.52,12.239c-2.432,4.083-5.057,7.294-7.198,11.203c-1.465,1.729-1.984,2.442-3.132,3.973
		c-0.517,0.688-0.8,1.174-1.701,1.997c-1.998,1.826-0.251,0.47-1.552,1.072c-2.03,4.855-13.75,15.139-18.29,18.859
		c-6.744,5.525-13.146,9.907-21.378,14.614c-52.56,30.057-121.988,21.364-162.717-15.667c-2.485-1.268-6.866-5.72-8.243-7.661
		l11.142-9.24c2.005-3.412,5.712-6.922,8.008-12.733c4.455-11.275,5.143-22.105,1.206-33.768c-1.981-5.869-4.856-9.06-7.022-13.384
		c-1-1-2.283-2.129-3.37-3.225c-1.557-1.57-2.389-1.831-2.596-3.403c-7.765-4.41-10.817-7.981-22.372-10.486
		c-13.016-2.822-19.618,1.386-26.636,2.502c-1.198-7.961-2.099-41.742,2.079-46.455l0.491-4.061
		c0.944-4.367,5.508-21.231,8.313-24.75c0.96-3.793,4.733-13.208,8.127-14.964l21.598,0.052l35.797-0.04
		c7.19-0.047,7.264-0.399,12.751-2.336c4.81-7.853,3.435-5.679,3.672-17.208c0.139-6.746,0.083-13.501,0.039-20.25
		c-0.09-14.008-0.121-27.995-0.215-41.996c-2.9-10.688-11.148-9.103-22.643-9.104c-10.308-0.001-21.273,0.36-31.5-0.094
		c-29.337,2.941-45.857-8.892-45.752,17.441C151.772,264.363,150.938,273.319,152.156,279.118L152.156,279.118L152.156,279.118z"/>
	<path fill-rule="evenodd" clip-rule="evenodd" fill="#FEFEFF" d="M213.694,314.654c-3.016-9.125,8.866-9.063,5.841-0.016
		C217.261,315.356,215.979,315.36,213.694,314.654L213.694,314.654L213.694,314.654z M200.847,308.36
		c4.648-2.101,6.516,4.626,3.014,6.472c-2.447,1.289-4.53-0.105-5.202-1.676C196.771,308.751,200.83,308.368,200.847,308.36
		L200.847,308.36L200.847,308.36z M184.469,314.639c-3.005-9.078,8.873-9.08,5.836,0.02
		C188.023,315.359,186.74,315.353,184.469,314.639L184.469,314.639L184.469,314.639z M212.883,285.868
		c0-5.55,1.855-6.272,6.647-4.771c1.31,3.917,0.831,10.543,0.831,15.271c0,7.748-7.479,7.855-7.479,0V285.868L212.883,285.868
		L212.883,285.868z M198.263,285.868c0-8.88,11.299-10.109,6.805,15.155c-3.262,1.384-2.876,1.388-6.228,0.011L198.263,285.868
		L198.263,285.868L198.263,285.868z M183.653,286.618c0-4.47,2.058-9.061,6.351-5.308c1.646,1.439,2.432,18.291-0.869,20.243
		C182.167,305.676,183.653,290.617,183.653,286.618L183.653,286.618L183.653,286.618z M244.295,272.714h-84.578
		c-0.229,7.404-1.519,46.366,0.994,49.859c1.521,1.623,0.712,1.346,3.743,1.62l69.046-0.02
		C245.725,324.228,246.109,330.083,244.295,272.714L244.295,272.714L244.295,272.714z"/>
	<path fill-rule="evenodd" clip-rule="evenodd" fill="#E31E24" d="M439.576,319.618l-0.211,8.452
		c-3.897,0.894-25.27,2.42-26.642-1.489c-1.924-5.483,2.13-5.734-2.534-9.677c-0.995-0.841-1.465-0.967-2.528-1.947
		c-14.153-13.039-4.115-36.315,17.829-36.649c19.074-0.29,30.36,16.817,23.209,30.784
		C444.802,316.698,441.199,315.656,439.576,319.618L439.576,319.618L439.576,319.618z M417.968,266.054
		c-18.573,4.183-35.436,22.034-30.158,46.322c4.011,18.451,22.984,35.496,46.916,29.89c18.112-4.244,34.14-22.224,29.584-45.673
		C460.672,277.865,441.561,260.741,417.968,266.054L417.968,266.054L417.968,266.054z"/>
	<path fill-rule="evenodd" clip-rule="evenodd" fill="#E31E24" d="M163.356,479.021c-17.978-7.147-14.503-39.926,13.898-39.705
		c26.334,0.204,32.587,30.594,13.356,39.867c-0.145,9.452,1.217,10.46-6.563,10.372c-2.27-0.025-4.526-0.033-6.797-0.033
		c-3.975-0.001-10.273,0.411-13.595-0.606L163.356,479.021L163.356,479.021L163.356,479.021z M172.487,426.405
		c-20.123,2.516-37.303,20.417-34.194,43.953c2.625,19.877,20.905,36.505,43.941,33.563c19.517-2.491,36.397-21.045,33.515-43.603
		C213.236,440.657,195.212,423.564,172.487,426.405L172.487,426.405L172.487,426.405z"/>
	<path fill-rule="evenodd" clip-rule="evenodd" fill="#E31E24" d="M227.932,256.313c1.609-1.123,4.278-0.539,5.965-0.065
		C236.97,265.688,224.932,265.586,227.932,256.313L227.932,256.313L227.932,256.313z M209.152,255.801
		c0.897,1.593,2.06,2.772,1.319,4.803c-0.529,1.452-2.029,2.939-4.383,2.425C202.592,262.265,200.465,255.178,209.152,255.801
		L209.152,255.801L209.152,255.801z M216.812,256.348c5.01-3.255,7.874,3.293,4.366,5.973
		C217.124,265.417,212.667,259.041,216.812,256.348L216.812,256.348L216.812,256.348z M159.718,272.714h84.579
		c0.148-6.064,0.981-19.072-0.946-23.664c-4.506-1.448-78.241-1.44-82.687,0.011C158.737,253.616,159.571,266.674,159.718,272.714
		L159.718,272.714L159.718,272.714z"/>
	<path fill-rule="evenodd" clip-rule="evenodd" fill="#E31E24" d="M426.024,499.717c0.616,0.871,0.357,0.785,0.935,1.798
		c4.365,2.014,8.487,10.244,7.28,18.206c-1.078,7.115-6.233,12.705-11.032,15.044c-0.08,4.989,0.851,8.9-1.945,9.962
		c-2.017,0.766-22.56,0.513-25.019-0.397l0.13-9.049l-1.62-0.263c-1.08,3.357-11.408,8.561-14.989,11.998
		c0.656,1.292-0.075,0.102,0.881,1.247c0.087,0.106,0.244,0.278,0.34,0.386c10.144,11.419,25.833,15.19,40.547,10.763
		c7.506-2.26,13.645-6.984,17.273-11.248c6.076-7.139,5.821-10.151,9.739-18.66l3.956-0.606c0-4.492,0.552-10.512-0.75-13.809
		c-4.251-0.53-3.895-1.757-5.265-5.703c-0.961-2.765-2.135-5.058-3.665-7.565c-2.327-3.809-7.113-9.437-10.845-11.293
		L426.024,499.717L426.024,499.717L426.024,499.717z"/>
	<path fill-rule="evenodd" clip-rule="evenodd" fill="#FEFEFF" d="M422.468,315.868c0.932-2.201,1.553-2.86,3.782-3.656
		c2.246,1.203,2.291,0.991,3.245,3.656C427.393,319.831,424.351,320.594,422.468,315.868L422.468,315.868L422.468,315.868z
		 M441.438,306.868c-3.321,7.981-15.193,4.591-11.711-3.937C432.779,295.455,444.84,298.688,441.438,306.868L441.438,306.868
		L441.438,306.868z M409.987,305.368c-1.056-8.867,11.774-8.799,12.642-0.688C423.627,314.004,410.902,313.049,409.987,305.368
		L409.987,305.368L409.987,305.368z M439.576,319.618c1.623-3.963,5.227-2.919,9.123-10.527
		c7.151-13.967-4.136-31.074-23.209-30.784c-21.944,0.334-31.983,23.61-17.829,36.649c1.063,0.979,1.533,1.106,2.528,1.947
		c4.664,3.943,0.61,4.193,2.534,9.677c1.372,3.91,22.744,2.383,26.642,1.49L439.576,319.618L439.576,319.618L439.576,319.618z"/>
	<path fill-rule="evenodd" clip-rule="evenodd" fill="#FEFEFF" d="M173.498,476.368c4.987-8.819,10.196,3.479,3.752,3.854
		C173.748,479.145,174.768,478.892,173.498,476.368L173.498,476.368L173.498,476.368z M161.578,468.118
		c-3.476-9.265,9.194-11.337,11.68-4.155C176.483,473.283,164.029,474.65,161.578,468.118L161.578,468.118L161.578,468.118z
		 M192.326,468.118c-3.337,7.743-15.203,3.96-11.501-4.616C183.755,456.71,196.134,459.282,192.326,468.118L192.326,468.118
		L192.326,468.118z M163.356,479.021l0.298,9.895c3.322,1.017,9.62,0.605,13.595,0.606c2.271,0,4.527,0.007,6.797,0.032
		c7.78,0.089,6.419-0.92,6.563-10.371c19.231-9.274,12.979-39.663-13.356-39.867C148.853,439.096,145.379,471.874,163.356,479.021
		L163.356,479.021L163.356,479.021z"/>
	<path fill-rule="evenodd" clip-rule="evenodd" fill="#FEFEFF" d="M406.088,531.868c1.307-2.069,1.091-2.204,3.662-3.144
		c0.152,0.006,6.189,1.589,1.102,6.987C407.642,535.355,406.829,534.556,406.088,531.868L406.088,531.868L406.088,531.868z
		 M415.881,515.909c9.484-2.319,12.235,4.817,7.925,9.74c-5.018,5.73-14.415-0.678-10.219-6.037
		c-2.272,0.306-1.962,0.726-3.627,2.681c-0.563,0.659-1.254,1.506-1.884,1.932c-1.537,1.04-0.171,0.478-2.441,1.066l-1.672,1.797
		c-0.813,2.607,0.697,0.065-1.496,2.763c-0.241,0.298-1.521,1.407-1.962,1.784c-1.451,1.236-2.633,2.191-4.132,3.645l-0.13,9.049
		c2.459,0.911,23.003,1.163,25.02,0.397c2.795-1.062,1.864-4.973,1.945-9.962c4.798-2.338,9.953-7.927,11.031-15.043
		c1.207-7.962-2.915-16.193-7.28-18.207c-2.034,0.645-2.018,1.579-3.364,3.618c-0.911,1.38-1.766,2.616-2.781,4.003
		C419.591,510.806,415.568,515.084,415.881,515.909L415.881,515.909L415.881,515.909z"/>
	<path fill-rule="evenodd" clip-rule="evenodd" fill="#E31E24" d="M464.5,471.118c0-5.163,6.75-5.163,6.75,0
		C471.25,474.949,464.5,474.949,464.5,471.118L464.5,471.118L464.5,471.118z M460.704,461.368
		c-1.586,2.682-4.559,5.271-3.971,10.494c0.569,5.077,3.464,6.509,5.456,9.006c4.787,1.074,7.828,1.951,11.979-0.829
		C485.175,472.669,477.3,452.892,460.704,461.368L460.704,461.368L460.704,461.368z"/>
	<path fill-rule="evenodd" clip-rule="evenodd" fill="#E31E24" d="M413.582,237.309c-0.216-4.094-0.211-2.854,1.624-5.307
		l3.732-0.051C423.097,237.347,418.983,241.468,413.582,237.309L413.582,237.309L413.582,237.309z M414.25,224.73
		c-11.116,3.262-10.832,18.172-0.716,21.356c5.745,1.809,10.714-1.034,12.836-4.372c3.622-5.693,1.674-9.81-1.022-14.347
		c-1.413-1.09-2.503-1.996-4.701-2.698C417.388,223.627,417.068,223.923,414.25,224.73L414.25,224.73L414.25,224.73z"/>
	<path fill-rule="evenodd" clip-rule="evenodd" fill="#FFD8D8" d="M403.142,516.038c3.03,3.599,3.695,3.742,2.494,9.253
		c2.271-0.589,0.903-0.025,2.44-1.065c0.63-0.427,1.321-1.273,1.884-1.933c1.666-1.955,1.355-2.375,3.627-2.68
		c1.03-1.904,1.341-2.177,2.295-3.704c-0.313-0.824,3.71-5.103,4.932-6.772c1.016-1.388,1.871-2.623,2.781-4.003
		c1.347-2.039,1.33-2.974,3.365-3.617c-0.578-1.014-0.318-0.927-0.935-1.798l-5.026-2.959c-2.033,1.895-2.516,2.802-4.151,4.726
		c-1.686,1.982-3.042,3.274-4.618,5.116C409.6,509.673,404.816,513.23,403.142,516.038L403.142,516.038L403.142,516.038z"/>
	<path fill-rule="evenodd" clip-rule="evenodd" fill="#FF4D4D" d="M379.764,547.017c3.581-3.438,13.909-8.641,14.989-11.999
		c-0.677-1.138-2.371-2.307-3.501-3.371c-1.358-1.278-1.794-1.948-3.343-3.513l-13.075,7.849c-0.127,0.1-0.313,0.268-0.426,0.36
		l-0.822,0.775C375.086,541.152,377.379,544.873,379.764,547.017L379.764,547.017L379.764,547.017z"/>
	<path fill-rule="evenodd" clip-rule="evenodd" fill="#E31E24" d="M130,348.868c2.331,10.007,10.05,0.803,11.25,0
		c5.837,8.718,9.75,2.518,9.75,0.75c0-2.625-7.875-10.5-10.5-10.5C138.24,339.118,131.229,347.033,130,348.868L130,348.868
		L130,348.868z"/>
	<path fill-rule="evenodd" clip-rule="evenodd" fill="#E31E24" d="M370.195,248.204c6.329,1.779,5.64-1.19,9.555-3.767
		c2.86,1.42,3.069,3.328,4.73,4.021c2.966,1.24,5.673-0.859,5.396-3.763c-0.2-2.106-6.602-7.795-8.424-9.752
		c-5.163-0.145-5.515,1.439-8.113,4.012C370.469,241.796,368.784,242.594,370.195,248.204L370.195,248.204L370.195,248.204z"/>
	<path fill-rule="evenodd" clip-rule="evenodd" fill="#FD6A6C" d="M183.653,286.618c0,3.999-1.486,19.058,5.482,14.935
		c3.3-1.953,2.515-18.803,0.869-20.242C185.712,277.558,183.653,282.148,183.653,286.618L183.653,286.618L183.653,286.618z"/>
	<path fill-rule="evenodd" clip-rule="evenodd" fill="#FD6A6C" d="M212.883,285.868v10.5c0,7.855,7.479,7.748,7.479,0
		c0-4.728,0.479-11.354-0.831-15.271C214.738,279.596,212.883,280.317,212.883,285.868L212.883,285.868L212.883,285.868z"/>
	<path fill-rule="evenodd" clip-rule="evenodd" fill="#FD6A6C" d="M198.263,285.868l0.578,15.165
		c3.351,1.377,2.966,1.373,6.228-0.011C209.563,275.759,198.263,276.987,198.263,285.868L198.263,285.868L198.263,285.868z"/>
	<path fill-rule="evenodd" clip-rule="evenodd" fill="#FD6A6C" d="M409.987,305.368c0.916,7.682,13.64,8.636,12.642-0.688
		C421.762,296.569,408.931,296.501,409.987,305.368L409.987,305.368L409.987,305.368z"/>
	<path fill-rule="evenodd" clip-rule="evenodd" fill="#FD6A6C" d="M192.326,468.118c3.809-8.836-8.57-11.408-11.501-4.616
		C177.123,472.078,188.988,475.861,192.326,468.118L192.326,468.118L192.326,468.118z"/>
	<path fill-rule="evenodd" clip-rule="evenodd" fill="#FD6A6C" d="M441.438,306.868c3.402-8.18-8.658-11.413-11.711-3.937
		C426.244,311.458,438.116,314.849,441.438,306.868L441.438,306.868L441.438,306.868z"/>
	<path fill-rule="evenodd" clip-rule="evenodd" fill="#FD6A6C" d="M415.881,515.909c-0.953,1.527-1.265,1.799-2.295,3.703
		c-4.195,5.359,5.202,11.767,10.219,6.037C428.116,520.727,425.365,513.59,415.881,515.909L415.881,515.909L415.881,515.909z"/>
	<path fill-rule="evenodd" clip-rule="evenodd" fill="#FD6A6C" d="M161.578,468.118c2.451,6.532,14.905,5.165,11.68-4.155
		C170.773,456.781,158.103,458.854,161.578,468.118L161.578,468.118L161.578,468.118z"/>
	<path fill-rule="evenodd" clip-rule="evenodd" fill="#FFD8D8" d="M387.909,528.134c1.548,1.564,1.984,2.234,3.343,3.513
		c1.13,1.064,2.824,2.233,3.501,3.371l1.62,0.263c1.498-1.453,2.681-2.408,4.131-3.645c0.441-0.377,1.721-1.485,1.963-1.784
		c2.192-2.697,0.683-0.155,1.495-2.762c-6.297,1.469-6.834,0.268-9.981-3.399c-1.339,0.555-1.842,0.928-3.224,1.921
		C389.365,526.609,388.855,527.113,387.909,528.134L387.909,528.134L387.909,528.134z"/>
	<path fill-rule="evenodd" clip-rule="evenodd" fill="#FF4D4D" d="M393.981,523.689c3.146,3.668,3.684,4.869,9.981,3.399
		l1.673-1.798c1.201-5.511,0.536-5.654-2.495-9.253C401.26,516.878,395.395,521.971,393.981,523.689L393.981,523.689
		L393.981,523.689z"/>
	<path fill-rule="evenodd" clip-rule="evenodd" fill="#FF4D4D" d="M420.999,496.758l5.025,2.959l5.952-9.189l-4.867-3.124
		C425.259,491.119,422.242,493.765,420.999,496.758L420.999,496.758L420.999,496.758z"/>
	<path fill-rule="evenodd" clip-rule="evenodd" fill="#FFD8D8" d="M216.812,256.348c-4.145,2.693,0.313,9.07,4.366,5.973
		C224.685,259.641,221.822,253.094,216.812,256.348L216.812,256.348L216.812,256.348z"/>
	<path fill-rule="evenodd" clip-rule="evenodd" fill="#FFD8D8" d="M209.152,255.801c-8.687-0.624-6.56,6.463-3.063,7.228
		c2.354,0.515,3.854-0.973,4.383-2.425C211.211,258.573,210.048,257.394,209.152,255.801L209.152,255.801L209.152,255.801z"/>
	<path fill-rule="evenodd" clip-rule="evenodd" fill="#FFD8D8" d="M227.932,256.313c-3,9.272,9.038,9.374,5.965-0.065
		C232.21,255.774,229.541,255.19,227.932,256.313L227.932,256.313L227.932,256.313z"/>
	<path fill-rule="evenodd" clip-rule="evenodd" fill="#FD6A6C" d="M200.847,308.36c-0.017,0.007-4.075,0.391-2.188,4.796
		c0.672,1.571,2.755,2.964,5.202,1.676C207.362,312.987,205.495,306.26,200.847,308.36L200.847,308.36L200.847,308.36z"/>
	<path fill-rule="evenodd" clip-rule="evenodd" fill="#FD6A6C" d="M213.694,314.654c2.284,0.706,3.567,0.703,5.841-0.016
		C222.561,305.59,210.678,305.53,213.694,314.654L213.694,314.654L213.694,314.654z"/>
	<path fill-rule="evenodd" clip-rule="evenodd" fill="#FD6A6C" d="M184.469,314.639c2.271,0.714,3.554,0.72,5.836,0.02
		C193.343,305.559,181.464,305.562,184.469,314.639L184.469,314.639L184.469,314.639z"/>
	<path fill-rule="evenodd" clip-rule="evenodd" fill="#E31E24" d="M413.582,237.309c5.4,4.159,9.515,0.039,5.356-5.358l-3.732,0.051
		C413.371,234.454,413.366,233.214,413.582,237.309L413.582,237.309L413.582,237.309z"/>
	<path fill-rule="evenodd" clip-rule="evenodd" fill="#FD6A6C" d="M173.498,476.368c1.271,2.523,0.25,2.776,3.752,3.854
		C183.692,479.848,178.484,467.549,173.498,476.368L173.498,476.368L173.498,476.368z"/>
	<path fill-rule="evenodd" clip-rule="evenodd" fill="#FD6A6C" d="M406.088,531.868c0.741,2.688,1.553,3.486,4.764,3.844
		c5.088-5.398-0.949-6.982-1.102-6.987C407.179,529.665,407.395,529.799,406.088,531.868L406.088,531.868L406.088,531.868z"/>
	<path fill-rule="evenodd" clip-rule="evenodd" fill="#FD6A6C" d="M422.468,315.868c1.883,4.725,4.925,3.963,7.027,0
		c-0.954-2.665-0.999-2.453-3.245-3.656C424.021,313.008,423.399,313.667,422.468,315.868L422.468,315.868L422.468,315.868z"/>
</g>
</svg>
