<?xml version="1.0" encoding="utf-8"?>
<!-- Generator: Adobe Illustrator 16.0.0, SVG Export Plug-In . SVG Version: 6.00 Build 0)  -->
<!DOCTYPE svg PUBLIC "-//W3C//DTD SVG 1.1//EN" "http://www.w3.org/Graphics/SVG/1.1/DTD/svg11.dtd">
<svg version="1.1" id="Layer_1" xmlns="http://www.w3.org/2000/svg" xmlns:xlink="http://www.w3.org/1999/xlink" x="0px" y="0px"
	 width="800px" height="800px" viewBox="0 0 800 800" enable-background="new 0 0 800 800" xml:space="preserve">
<g>
	<path fill-rule="evenodd" clip-rule="evenodd" fill="#ff9f43" d="M340.482,358.082c-1.658,13.438,3.726,39.56,8.708,53.303
		c0.935,2.578,1.835,5.06,2.752,7.563c1.242,3.391,2.206,3.958,3.547,6.768c4.069,8.516,8.167,15.19,14.425,21.92l7.892,7.327
		c3.146,2.674,15.664,11.911,19.023,12.066c5.354,0.248,22.433-14.085,24.996-16.839c23.574-25.321,30.675-54.549,32.081-91.926
		c-5.286-0.628-18.897-4.746-24.244-6.722c-2.375-0.878-4.607-1.872-6.986-2.89c-13.618-5.828-21.188-12.729-25.851-15.041
		c-2.258,0.803-11.469,9.004-25.42,15.028C352.974,356.598,356.608,353.606,340.482,358.082L340.482,358.082z"/>
	<path fill-rule="evenodd" clip-rule="evenodd" fill="#ff9f43" d="M340.482,358.082c16.125-4.476,12.492-1.484,30.924-9.443
		c13.951-6.024,23.163-14.225,25.42-15.028c4.663,2.313,12.233,9.213,25.851,15.041c2.379,1.019,4.611,2.012,6.986,2.89
		c5.347,1.976,18.958,6.094,24.244,6.722c-1.406,37.376-8.507,66.604-32.081,91.926c-2.563,2.754-19.642,17.087-24.996,16.839
		c-3.359-0.155-15.877-9.393-19.023-12.066l-7.892-7.327c-6.259-6.729-10.356-13.404-14.425-21.92
		c-1.342-2.81-2.305-3.377-3.547-6.768c-0.917-2.504-1.818-4.985-2.752-7.563C344.208,397.642,338.824,371.52,340.482,358.082
		L340.482,358.082z M496.952,366.764l-38.374,16.219c2.437-33.871,5.037-28.631-9.589-32.378c-1.889-0.484-4.245-0.891-6.149-1.476
		c-14.54-4.471-23.959-8.983-36.563-16.83c-4.429-2.757-4.642-3.199-7.656-7.111c-5.285,0.558-19.106,17.931-53.996,25.379
		c-11.239,2.399-11.081,3.346-10.554,15.874c0.667,15.861,3.79,31.131,8.252,44.64l5.16,15.013c0.79,1.508,1.482,0.747,2.712,3.563
		c2.45,5.603,6.578,11.847,10.005,16.455c6.749,9.076,18.624,18.714,28.617,24.312c8.822,4.942,10.773,3.8,18.933-1.109
		c15.885-9.558,28.999-23.829,37.625-41.79c5.356-11.153,10.542-25.931,12.542-40.023l39.207,16.439
		c-1.919-3.839-3.976-9.96-4.312-15.247l34.537,0.142c11.119,0.01,20.575-1.858,26.658-8.31c1.694-1.797,2.404-2.247,4.027-4.49
		c3.8-5.251,5.535-11.609,5.535-18.574v-82.979c0-11.534-5.248-20.056-11.275-24.508c-9.76-7.208-14.721-6.514-28.982-6.621
		l-273.096-1.62L250.157,238l-13.651,0.17l-0.152,13.866l13.792,0.034l0.001-1.359l0.004-2.312l280.338,1.385
		c16.021-0.007,26.606,8.803,26.606,24.699v82.979c0,10.26-4.251,16.308-9.796,20.394c-6.933,5.108-15.095,4.554-25.332,4.554
		l-29.154-0.156C493.244,375.467,495.403,372.255,496.952,366.764L496.952,366.764z"/>
	<path fill-rule="evenodd" clip-rule="evenodd" fill="#ff9f43" d="M299.664,397.042c1.937,4.437,3.79,9.35,4.249,15.089
		c-10.632,0.657-23.178,0.07-34.021,0.073c-11.788,0.004-19.546,0.912-26.271,7.336c-5.789,5.53-10.4,11.649-10.477,23.583
		l-0.006,67.738c-0.054,10.812-1.065,21.438,3.321,30.272c10.215,20.58,31.59,16.391,51.375,16.381
		c67.175-0.032,134.639,0.56,201.841,1.197l59.229,0.34c4.304-0.029,3.707-0.322,3.889,3.894l13.581,0.031v-14.198l-13.605,0.251
		l-0.093,3.559c-84.989-0.248-169.952-1.274-254.974-1.365c-10.761-0.012-21.551,0.062-32.307-0.025
		c-10.6-0.085-17.59-4.057-21.604-10.193c-5.506-8.421-4.286-16.297-4.212-27.452l-0.004-64.14
		c-0.099-12.018,0.688-17.813,7.439-24.238c7.144-6.799,13.138-6.534,25.121-6.53c9.964,0.003,21.876-0.594,31.598,0.067
		c0.472,5.422-2.645,11.021-4.099,15.312c3.619-0.961,41.819-17.422,43.216-18.677c-1.924-1.315-8.165-3.628-10.802-4.768
		C327.004,408.4,301.29,397.137,299.664,397.042L299.664,397.042z"/>
	<path fill-rule="evenodd" clip-rule="evenodd" fill="#ff9f43" d="M257.829,462.87c0,14.453-1.895,38.799,3.471,50.283
		c5.134,10.989,16.001,20.461,31.939,21.354c8.692,0.487,18.117,0.038,26.888,0.033l160.126,0.004
		c8.04,0.036,18.079,0.706,25.777-0.618c13.832-2.381,24.822-12.604,28.617-24.728c2.45-7.824,1.688-16.54,1.658-25.249
		c-0.02-5.517,0.629-21.635-0.437-26.142l-7.683,0.105c-0.728,13.002,2.066,37.447-1.021,48.272
		c-3.374,11.825-14.032,20.22-28.961,20.374c-32.821,0.339-65.843-0.003-98.687-0.003c-32.893,0-65.785,0-98.678,0.001
		c-8.912,0-14.096-0.198-20.702-3.974c-4.869-2.781-9.197-7.437-11.674-13.002c-4.28-9.614-2.601-34.649-2.601-47.002
		L257.829,462.87L257.829,462.87z"/>
	<path fill-rule="evenodd" clip-rule="evenodd" fill="#ff9f43" d="M265.975,333.8c1.305-14.128-2.902-33.281,3.036-44.942
		c7.258-14.253,18.991-15.724,32.728-15.724l193.767,0c8.357,0.001,13.939,0.828,19.713,4.524
		c19.018,12.172,12.018,35.271,12.893,59.622c2.476,0.011,5.653,0.513,7.912-0.292c0.515-12.315,1.696-39.948-2.452-49.433
		c-11.394-26.051-35.412-22.505-56.456-22.475l-130.972,0.001c-17.198,0-35.431-0.605-52.497,0.015
		c-15.843,0.576-26.77,10.114-31.94,20.506c-6.05,12.161-3.665,33.168-3.542,48.268L265.975,333.8L265.975,333.8z"/>
</g>
</svg>
