<?xml version="1.0" encoding="utf-8"?>
<!-- Generator: Adobe Illustrator 16.0.0, SVG Export Plug-In . SVG Version: 6.00 Build 0)  -->
<!DOCTYPE svg PUBLIC "-//W3C//DTD SVG 1.1//EN" "http://www.w3.org/Graphics/SVG/1.1/DTD/svg11.dtd">
<svg version="1.1" id="Layer_1" xmlns="http://www.w3.org/2000/svg" xmlns:xlink="http://www.w3.org/1999/xlink" x="0px" y="0px"
	 width="11.52px" height="11.52px" viewBox="0 0 11.52 11.52" enable-background="new 0 0 11.52 11.52" xml:space="preserve">
<g>
	<path fill="#ea5455" fill-rule="evenodd" clip-rule="evenodd" d="M1.575,1.516c-0.152,0.026-0.28,0.093-0.396,0.209
		C1.104,1.799,1.081,1.831,1.041,1.914c-0.088,0.181-0.08-0.192-0.08,3.983c0,4.175-0.008,3.803,0.08,3.983
		c0.04,0.083,0.063,0.114,0.138,0.189s0.106,0.098,0.189,0.139c0.181,0.088-0.065,0.081,2.922,0.077l2.656-0.003l0.08-0.027
		c0.125-0.043,0.214-0.098,0.301-0.186C7.458,9.936,7.519,9.806,7.54,9.616c0.009-0.084,0.014-0.102,0.027-0.098
		C7.576,9.521,7.649,9.533,7.73,9.546c0.187,0.028,0.643,0.04,0.853,0.021c0.725-0.064,1.353-0.334,1.882-0.81
		c0.267-0.239,0.533-0.581,0.686-0.878l0.059-0.114l-0.074-0.146c-0.299-0.597-0.793-1.1-1.359-1.387
		C9.34,6.012,8.956,5.921,8.422,5.911C8.083,5.904,7.835,5.924,7.59,5.979l-0.043,0.01V4.1c0-1.178-0.004-1.916-0.01-1.959
		C7.513,1.977,7.44,1.836,7.322,1.72C7.235,1.634,7.146,1.579,7.029,1.54L6.946,1.511L4.285,1.509
		C2.822,1.509,1.603,1.512,1.575,1.516L1.575,1.516z M6.81,4.25v1.997L6.688,6.314C6.206,6.586,5.816,6.948,5.503,7.418
		C5.45,7.498,5.382,7.61,5.352,7.666L5.298,7.768l0.048,0.096c0.147,0.292,0.407,0.632,0.661,0.864
		c0.217,0.197,0.411,0.337,0.658,0.472l0.139,0.076v0.291H1.692V2.248L4.251,2.25L6.81,2.253V4.25L6.81,4.25z M8.423,6.667
		c-0.011,0.002-0.026,0.002-0.037,0c-0.01-0.003-0.001-0.005,0.019-0.005S8.433,6.664,8.423,6.667L8.423,6.667z M8.07,6.687
		C7.715,6.76,7.41,7.016,7.276,7.352C7.022,7.992,7.435,8.715,8.114,8.824C8.24,8.845,8.46,8.832,8.577,8.799
		C8.894,8.708,9.16,8.477,9.284,8.185c0.062-0.146,0.084-0.259,0.085-0.427c0-0.168-0.013-0.243-0.064-0.387
		C9.179,7.028,8.881,6.771,8.512,6.687l-0.07-0.016l0.12,0.004c0.399,0.016,0.854,0.15,1.19,0.353
		c0.199,0.12,0.416,0.305,0.555,0.475c0.072,0.088,0.178,0.248,0.178,0.269c0,0.008-0.024,0.05-0.055,0.094
		c-0.279,0.406-0.767,0.73-1.315,0.875C8.581,8.881,7.921,8.883,7.411,8.745C6.916,8.611,6.475,8.33,6.212,7.98
		C6.145,7.892,6.073,7.775,6.073,7.757c0-0.006,0.021-0.042,0.045-0.081c0.217-0.333,0.598-0.633,1.021-0.801
		c0.273-0.109,0.702-0.202,0.937-0.202h0.063L8.07,6.687L8.07,6.687z M8.347,7.393C8.472,7.416,8.567,7.49,8.62,7.606
		c0.023,0.052,0.029,0.077,0.029,0.146c0,0.074-0.003,0.091-0.034,0.153C8.573,7.992,8.499,8.062,8.417,8.093
		C8.333,8.124,8.202,8.117,8.126,8.079c-0.069-0.036-0.138-0.105-0.17-0.175C7.933,7.855,7.929,7.832,7.929,7.753
		c0-0.086,0.003-0.101,0.034-0.165c0.053-0.105,0.146-0.177,0.261-0.196c0.027-0.004,0.053-0.009,0.056-0.01
		C8.282,7.382,8.313,7.387,8.347,7.393z"/>
	<path fill="#ea5455" fill-rule="evenodd" clip-rule="evenodd" d="M2.715,2.981C2.645,2.998,2.576,3.04,2.521,3.1
		C2.454,3.172,2.43,3.239,2.43,3.347c0,0.068,0.005,0.088,0.035,0.149c0.037,0.076,0.099,0.138,0.177,0.176l0.049,0.024h3.126
		L5.883,3.66C6.005,3.594,6.063,3.5,6.071,3.356c0.003-0.073,0-0.099-0.018-0.148C6.021,3.125,5.952,3.051,5.866,3.009l-0.07-0.034
		L4.274,2.973C3.41,2.972,2.737,2.976,2.715,2.981z"/>
	<path fill="#ea5455" fill-rule="evenodd" clip-rule="evenodd" d="M2.715,4.434C2.645,4.45,2.576,4.492,2.521,4.552
		C2.454,4.625,2.43,4.692,2.43,4.8c0,0.067,0.005,0.087,0.035,0.148c0.037,0.077,0.099,0.139,0.177,0.177l0.049,0.024h3.126
		l0.066-0.035C6.005,5.047,6.063,4.953,6.071,4.81c0.003-0.073,0-0.099-0.018-0.147c-0.026-0.07-0.09-0.146-0.155-0.184
		C5.801,4.421,5.851,4.422,4.244,4.424C3.419,4.424,2.736,4.429,2.715,4.434z"/>
	<path fill="#ea5455" fill-rule="evenodd" clip-rule="evenodd" d="M2.674,8.116c-0.109,0.04-0.182,0.106-0.227,0.205
		C2.426,8.368,2.42,8.396,2.42,8.464C2.418,8.64,2.523,8.775,2.695,8.819c0.167,0.043,0.343-0.043,0.417-0.201
		C3.136,8.566,3.14,8.544,3.14,8.464C3.139,8.381,3.136,8.362,3.109,8.309C3.073,8.236,2.998,8.162,2.928,8.131
		C2.866,8.104,2.729,8.096,2.674,8.116z"/>
</g>
</svg>
