<?xml version="1.0" encoding="utf-8"?>
<!-- Generator: Adobe Illustrator 16.0.0, SVG Export Plug-In . SVG Version: 6.00 Build 0)  -->
<!DOCTYPE svg PUBLIC "-//W3C//DTD SVG 1.1//EN" "http://www.w3.org/Graphics/SVG/1.1/DTD/svg11.dtd">
<svg version="1.1" id="Layer_1" xmlns="http://www.w3.org/2000/svg" xmlns:xlink="http://www.w3.org/1999/xlink" x="0px" y="0px"
	 width="11.52px" height="11.52px" viewBox="0 0 11.52 11.52" enable-background="new 0 0 11.52 11.52" xml:space="preserve">
<g>
	<path fill-rule="evenodd" clip-rule="evenodd" fill="#7367f0" d="M5.952,5.472l0.261-0.015l0.016,0.261L5.967,5.733L5.952,5.472
		L5.952,5.472z M1.344,5.313l0.262-0.015l0.012,0.259L1.359,5.576L1.344,5.313L1.344,5.313z M7.381,4.677l0.262-0.015l0.016,0.262
		L7.396,4.939L7.381,4.677L7.381,4.677z M6.377,5.225L6.255,5.151L6.249,4.448c0.206-0.093,0.167-0.082,0.516,0.115
		C7.002,4.697,7.037,4.619,7.05,4.895C6.863,4.971,6.557,5.194,6.377,5.225L6.377,5.225z M5.926,4.449l0.004,0.705
		c-0.21,0.095-0.214,0.063-0.416-0.057C5.325,4.985,4.877,4.84,5.284,4.63C5.665,4.434,5.675,4.329,5.926,4.449L5.926,4.449z
		 M4.523,4.679l0.257-0.015c0.033,0.117,0.033,0.158,0.002,0.26L4.537,4.939L4.523,4.679L4.523,4.679z M7.355,3.653
		c-0.213-0.1-0.229-0.05-0.436,0.071C6.645,3.885,6.563,3.853,6.563,4.006c0,0.136,0.064,0.126,0.178,0.183
		c0.375,0.188,0.345,0.294,0.618,0.17L7.355,3.653L7.355,3.653z M5.951,3.883c0.118-0.031,0.159-0.031,0.26,0.001
		c0.033,0.101,0.033,0.142,0.002,0.245L5.966,4.145L5.951,3.883L5.951,3.883z M4.824,4.359C5.046,4.458,5.045,4.416,5.26,4.288
		c0.215-0.127,0.611-0.245,0.178-0.464C5.075,3.64,5.088,3.529,4.82,3.654L4.824,4.359L4.824,4.359z M1.344,3.883l0.262-0.016
		l0.015,0.262L1.353,4.145L1.344,3.883L1.344,3.883z M7.38,3.088l0.263-0.014l0.016,0.261L7.396,3.35L7.38,3.088L7.38,3.088z
		 M6.376,3.637L6.254,3.563L6.25,2.859c0.163-0.078,0.13-0.088,0.286-0.011L7.05,3.117L7.048,3.306
		C6.842,3.392,6.564,3.604,6.376,3.637L6.376,3.637z M5.132,3.118c0.504-0.208,0.49-0.401,0.793-0.259l0.003,0.705
		c-0.33,0.153-0.23-0.026-0.799-0.258L5.132,3.118L5.132,3.118z M4.537,3.088l0.246-0.015l0.016,0.262
		c-0.118,0.031-0.16,0.031-0.26-0.001C4.506,3.233,4.504,3.191,4.537,3.088L4.537,3.088z M1.359,2.699
		C1.29,2.466,1.372,2.384,1.621,2.453l-0.016,0.26L1.359,2.699L1.359,2.699z M5.969,2.539C5.892,2.306,5.98,2.225,6.229,2.294
		L6.213,2.556L5.969,2.539L5.969,2.539z M1.924,2.412c-0.089-0.193-0.23-0.361-0.545-0.297C0.862,2.22,0.887,3.01,1.446,3.047
		c0.352,0.023,0.373-0.183,0.512-0.31c0.292,0.04,0.505,0.58,0.798,0.628c0.312,0.051,1.06-0.001,1.427,0.007
		c0.122,0.11,0.048,0.103,0.186,0.21c0.13,0.102,0.13,0.036,0.13,0.265L1.958,3.846C1.818,3.717,1.78,3.492,1.412,3.537
		c-0.528,0.064-0.547,0.865,0,0.937C1.778,4.522,1.82,4.293,1.958,4.165l2.541,0.002c0.003,0.227-0.002,0.162-0.131,0.262
		C4.233,4.536,4.304,4.53,4.183,4.64C3.822,4.648,3.061,4.596,2.757,4.647C2.451,4.699,2.256,5.241,1.958,5.273
		C1.816,5.141,1.78,4.921,1.412,4.969c-0.538,0.071-0.538,0.861,0,0.934c0.297,0.041,0.425-0.116,0.512-0.303
		c0.56-0.031,0.536-0.41,0.868-0.602c0.167-0.097,1.127-0.042,1.392-0.037C4.32,5.091,4.265,5.154,4.465,5.234
		C4.683,5.321,4.72,5.268,4.904,5.203c0.144-0.051,0.654,0.222,0.688,0.333c0.002,0.008,0.007,0.022,0.01,0.032l0.018,0.065
		C5.783,6.29,6.436,6.144,6.547,5.699c0.009-0.037,0.014-0.066,0.021-0.1c0.041-0.166,0.333-0.3,0.531-0.388
		c0.237-0.105,0.225,0.153,0.586,0.034c0.183-0.061,0.32-0.224,0.307-0.481C7.976,4.454,7.807,4.459,7.68,4.324l0.001-0.636
		c0.127-0.141,0.312-0.145,0.312-0.476c-0.001-0.246-0.14-0.404-0.336-0.455C7.287,2.662,7.343,2.922,7.074,2.788
		C6.977,2.739,6.608,2.559,6.587,2.479L6.561,2.38c-0.023-0.096-0.04-0.202-0.109-0.284C6.386,2.018,6.243,1.945,6.09,1.945
		c-0.505,0.001-0.453,0.5-0.507,0.567c-0.005,0.006-0.5,0.366-0.705,0.286C4.35,2.589,4.255,3.021,4.183,3.05
		C3.88,3.056,2.956,3.133,2.768,2.998c-0.07-0.05-0.276-0.278-0.355-0.36C2.238,2.458,2.264,2.431,1.924,2.412z"/>
	<path fill-rule="evenodd" clip-rule="evenodd" fill="#7367f0" d="M3.439,2.809c0.456-0.714,1.169-1.223,2.016-1.423
		c1.037-0.247,2.057,0.086,2.699,0.597c0.177,0.14,0.322,0.24,0.457,0.416C8.729,2.553,8.868,2.72,8.977,2.906
		c0.214,0.37,0.374,0.795,0.426,1.282c0.096,0.919,0.563,1.796,0.755,2.681C9.871,6.863,9.203,6.836,8.985,6.901
		C8.924,7.105,8.953,7.413,8.947,7.659c-0.654,0-0.755,0.063-0.936-0.368C7.969,7.19,8.013,7.259,7.957,7.185L7.681,7.186
		C7.727,8.043,8.487,7.971,8.949,7.98L8.948,8.929C8.48,8.942,7.08,8.873,6.762,8.966C6.688,9.205,6.73,9.883,6.724,10.203
		l-2.221-0.002c-0.01-0.963-0.164-1.868-0.492-2.687C3.657,6.63,3.435,6.426,3.212,5.931C3.141,5.774,3.099,5.526,2.99,5.403
		L2.718,5.476c0.085,0.436,0.307,0.78,0.504,1.119C3.635,7.304,3.946,8.153,4.091,8.98c0.071,0.406,0.053,1.258,0.128,1.504
		c0.211,0.064,2.575,0.064,2.788,0c0.075-0.242,0.026-0.909,0.04-1.232C7.491,9.246,8.94,9.301,9.233,9.213
		C9.319,8.921,9.26,7.615,9.27,7.186c0.319-0.007,0.99,0.035,1.234-0.037C10.571,6.904,10.22,6,10.128,5.688
		c-0.149-0.503-0.358-0.959-0.407-1.5C9.529,2.074,7.45,0.606,5.384,1.075C4.327,1.315,3.732,1.872,3.171,2.64
		C3.256,2.716,3.325,2.762,3.439,2.809z"/>
	<path fill-rule="evenodd" clip-rule="evenodd" fill="#7367f0" d="M6.213,4.129c0.031-0.103,0.031-0.144-0.002-0.245
		C6.11,3.852,6.069,3.853,5.951,3.883l0.015,0.262L6.213,4.129z"/>
	<path fill-rule="evenodd" clip-rule="evenodd" fill="#7367f0" d="M4.537,3.088C4.504,3.191,4.506,3.233,4.539,3.333
		c0.1,0.033,0.142,0.032,0.26,0.001L4.783,3.073L4.537,3.088z"/>
</g>
</svg>
