<?xml version="1.0" encoding="utf-8"?>
<!-- Generator: Adobe Illustrator 16.0.0, SVG Export Plug-In . SVG Version: 6.00 Build 0)  -->
<!DOCTYPE svg PUBLIC "-//W3C//DTD SVG 1.1//EN" "http://www.w3.org/Graphics/SVG/1.1/DTD/svg11.dtd">
<svg version="1.1" id="Layer_1" xmlns="http://www.w3.org/2000/svg" xmlns:xlink="http://www.w3.org/1999/xlink" x="0px" y="0px"
	 width="800px" height="800px" viewBox="0 0 800 800" enable-background="new 0 0 800 800" xml:space="preserve">
<g>
	<path fill-rule="evenodd" clip-rule="evenodd" fill="#050505" d="M424.887,449.897l-0.457,27.613
		c-2.545,0.571-12.965-0.945-16.546-1.184l0.259-26.093L424.887,449.897L424.887,449.897z M375.825,449.557l14.344-0.083
		l-0.344,28.396l-15.258,0.141L375.825,449.557L375.825,449.557z M450.865,346.641c25.911-2.543,43.943,17.837,45.4,41.875
		c1.618,26.711-16.754,44.621-41.639,46.352C400.816,438.612,387.486,352.86,450.865,346.641L450.865,346.641z M344.454,346.584
		c25.849-2.54,44.095,17.959,45.597,41.906c1.682,26.811-16.772,44.488-41.643,46.392
		C293.978,439.049,281.599,352.76,344.454,346.584L344.454,346.584z M491.834,496.889c7.673-1.872,16.202-2.058,23.769-4.046
		c7.531-1.979,13.367-6.602,17.132-10.67c8.959-9.682,15.548-22.339,12.146-41.218c-3.215-17.837-15.223-16.03-13.968-41.271
		c0.992-19.956,0.98-31.372-4.442-49.74c-9.087-30.78-25.284-52.006-43.279-67.068c-45.635-38.196-118.174-38.201-164.994-1.782
		c-19.307,15.018-35.046,34.767-44.722,65.611c-4.746,15.129-6.315,32.048-6.356,48.944c-0.078,32.233-3.373,23.92-8.625,32.957
		c-12.399,21.33-3.288,53.681,22.109,63.129c7.322,2.724,20.147,4.302,22.122,5.283l-0.055,48.819l28.201,0.127l0.157-41.697
		l16.158-0.362l0.471,42.434l25.717-0.478c0.479-0.674,0.126,0.185,0.38-0.951c0.105-0.471,0.108-0.726,0.13-1.21
		c0.396-8.314,0.019-30.39,0.035-39.063l16.062-0.76l0.456,41.781c2.006,0.777,23.872,0.552,26.893,0.058l-0.02-42.06l47.501,0.344
		c0.757,2.607,0.469,16.601,0.513,20.379c0.076,6.635-0.206,14.452,0.316,20.982l26.137,1.03L491.834,496.889L491.834,496.889z"/>
</g>
</svg>
