<?xml version="1.0" encoding="utf-8"?>
<!-- Generator: Adobe Illustrator 16.0.0, SVG Export Plug-In . SVG Version: 6.00 Build 0)  -->
<!DOCTYPE svg PUBLIC "-//W3C//DTD SVG 1.1//EN" "http://www.w3.org/Graphics/SVG/1.1/DTD/svg11.dtd">
<svg version="1.1" id="Layer_1" xmlns="http://www.w3.org/2000/svg" xmlns:xlink="http://www.w3.org/1999/xlink" x="0px" y="0px"
	 width="800px" height="800px" viewBox="0 0 800 800" enable-background="new 0 0 800 800" xml:space="preserve">
<path fill-rule="evenodd" clip-rule="evenodd" fill="#000000" d="M474.291,523.01c-3.391-13.573,16.43-17.258,18.99-4.96
	C496.07,531.447,477.023,533.948,474.291,523.01L474.291,523.01z M554.494,385.174v18.807c-1.65,26.182-10.203,51.489-25.334,76.343
	c-1.186,1.945-2.07,3.197-3.398,4.958c-5.48,7.271-17.25,22.307-23.965,26.804c1.242,5.327,2.506,6.974,1.02,13.227
	c-2.432,10.243-16.252,19.589-28.873,12.055c-4.879-2.912-2.209-4.18-10.49-0.003c-37.615,18.971-89.011,18.984-128.291,1.9
	l-10.738-4.687c-7.996,5.354-15.849,6.81-24.439,0.662c-3.053-2.185-5.486-5.093-6.844-9.224
	c-5.649-17.202,9.378-4.205-10.973-24.373c-3.514-3.482-6.968-7.823-9.984-11.865c-20.585-27.583-32.59-62.08-32.59-97.227
	c-8.559-1.994-13.36-9.093-14.138-16.661v-4.376c0.498-4.864,2.672-9.557,6.599-12.851c9.135-7.662,11.683-0.669,13.913-8.581
	c0.373-1.321,0.654-1.975,1.065-3.433c1.754-6.215,5-13.595,7.527-19.465c1.978-4.596,3.713-7.75,6.037-11.958
	c4.01-7.263,4.504-8.104,9.851-6.864c3.583,6.542,2.39,5.441-1.432,12.082c-4.929,8.564-13.515,27.016-14.447,36.117
	c3.708,3.311,4.271,3.787,7.519,7.695c8.095-0.431,19.891-3.408,28.999-4.417c10.459-1.158,21.081-1.748,31.7-1.819
	c1.079-3.519,4.882-7.192,8.228-9.001c5.635-3.047,8.858-2.197,15.456-1.785c1.213-3.05,5.44-7.65,7.654-10.459
	c9.065-11.5,22.204-22.352,25.626-26.484c-2.032-6.721-2.216-6.865-1.293-14.347c-3.667-1.663-7.758-4.174-11.637-6.206
	c-9.537-4.995-27.999-12.88-37.99-14.841c-1.703,4.253-6.375,8.147-11.431,9.71c-8.891,2.748-11.202-0.474-17.445-2.513
	c-3.143,3.198-6.138,6.207-9.213,9.305c-5.629,5.67-6.084,7.486-11.304,4.94c-2.045-2.852-2.661-3.83-0.408-7.004
	c2.153-3.034,11.854-11.013,14.547-15.034c-0.999-4.285-2.72-8.697-0.591-14.729c2.893-8.199,12.301-14.593,21.803-12.953
	c5.561,0.959,7.768,3.291,11.563,5.833c37.102-19.632,86.25-21.71,125.869-6.978l14.873,6.335c4.102-2.747,5.215-4.709,11.914-5.448
	c4.23-0.466,9.875,1.574,12.531,3.496c12.186,8.818,8.119,18.619,7.688,23.802c4.174,2.795,6.824,6.681,10.281,8.997
	c5.623-1.31,7.748-3.008,14.334-0.837c9.854,3.249,17.07,15.013,12.318,26.204c-3.42,8.055-5.188,0.902,2.91,17.048
	c1.877,3.741,3.609,7.583,5.068,11.642C550.09,353.269,553.518,369.393,554.494,385.174L554.494,385.174z M301.962,521.082
	c-0.758-6.084,2.888-10.432,7.945-11.301c5.733-0.985,10.687,3.243,11.423,8.116C323.326,531.119,303.477,533.24,301.962,521.082
	L301.962,521.082z M483.885,420.21l2.453-1.917c6.449,1.238,26.916,20.02,34.531,26.517c3.6,3.069,7.297,7.279,10.67,9.811
	c-2.318,9.892-19.58,33.899-27.414,41.811l-8.756,7.981c-1.555-0.692-3.443-1.797-5.012-2.525c0.377-5.63,0.891-11.058,1.064-16.787
	c0.172-5.627,1.715-13.976-3.887-14.679c-7.277-0.913-5.568,6.998-5.701,12.745c-0.137,5.855-0.518,11.612-1.105,17.351L479.844,501
	c-4.07,1.85-8.07,2.453-11.621,7.712c-3.986,5.904-4.002,8.914-3.492,16.868c-5.5,4.123-22.133,9.631-30.184,11.812
	c-24.305,6.583-49.569,6.165-73.91,0.146c-12.045-2.979-20.053-7.121-30.441-11.343c1.774-12.089-1.768-5.819,21.119-16.124
	c6.569-2.957,13.46-6.273,19.51-9.438c12.567-6.575,25.25-14.814,35.503-22.324l31.5-26.339c2.492-2.396,4.754-4.527,7.092-7.038
	c2.514-2.697,4.447-5.265,7.039-7.75l6.668-7.465c2.047-2.677,4.865-5.534,6.543-8.139c3.822,0.925,5.039,1.447,9.539,1.828
	c1.119,5.389,2.479,10.324,3.549,15.886c0.975,5.059,0.465,13.224,7.141,12.027C493.482,449.872,485.533,431.021,483.885,420.21
	L483.885,420.21z M328.28,508.854c-7.97-8.521-6.551-5.774-14.549-9.074c-1.716-23.378-1.126-41.389,3.279-63.918
	c2.316-11.847,11.731-43.408,17.697-50.829c6.313,0.892,12.006,0.192,16.574-2.902c5.548-3.759,5.113-6.571,8.489-12.172
	c16.32,1.203,36.105,6.487,50.851,10.944c7.859,2.376,15.178,5.234,22.66,8.189c5.352,2.113,17.102,6.983,21.15,9.886
	c-0.313,9.476-0.385,9.2,3.348,16.313c-7.82,10.46-17.348,20.627-26.184,29.163c-19.506,18.849-40.026,33.854-64.615,47.216
	C358.157,496.465,338.172,506.597,328.28,508.854L328.28,508.854z M464.178,406.689c-3.77-13.497,16.006-17.172,18.82-5.592
	C486.221,414.354,467.428,418.327,464.178,406.689L464.178,406.689z M487.502,389.98c1.148-3.882,6.639-11.777,8.85-16.359
	c6.609-13.696,9.781-19.946,15.354-34.783c2.057-5.475,4.045-13.695,6.455-18.597l6.951-1.068c1.52,3.87,4.373,8.347,6.385,12.843
	c11.502,25.715,15.768,53.462,12.068,81.724c-1.648,12.584-4.738,20.581-7.691,31.573l-20.834-18.451
	c-3.637-3.114-7.268-5.776-11.182-8.741c-3.74-2.831-7.688-5.932-11.654-8.183C493.963,398.53,492.4,397.375,487.502,389.98
	L487.502,389.98z M312.965,368.24c1.732-0.948,5.216-1.009,7.603-0.769l0.681,1.973c0.343,4.631,2.809,7.217,4.759,10.254
	c-1.255,3.955-3.841,8.711-5.557,12.747c-9.609,22.609-15.594,47.889-17.011,72.702c-0.742,13.004,0.386,23.446,0.648,36.014
	c-1.542,1.328-3.582,2.484-5.602,3.302c-4.023-5.166-10.274-9.955-18.43-21.268c-17.036-23.629-30.448-58.893-30.345-90.001
	l5.607-2.914c5.783-3.433,8.556-8.938,8.984-16.11C269.731,372.285,306.787,367.833,312.965,368.24L312.965,368.24z
	 M235.404,376.485c-3.804-13.352,15.876-16.762,18.79-5.573C257.782,384.687,238.656,387.9,235.404,376.485L235.404,376.485z
	 M330.531,367.487c-1.602-13.305,18.365-14.646,19.442-2.458C351.15,378.341,331.99,379.612,330.531,367.487L330.531,367.487z
	 M386.119,317.919c3.93,0.961,5.288,2.938,10.919,3.005c4.87,0.058,7.429-1.461,10.931-3.07
	c4.488,2.626,18.627,17.236,23.369,23.044c2.533,3.104,4.561,5.613,7.133,8.94c4.496,5.818,8.559,11.966,12.721,18.777l8.279,14.83
	c6.592,12.771-7.547,3.025-21.535-2.863c-19.941-8.394-42.883-14.83-64.454-18.465c-3.651-0.616-11.238-1.254-14.231-2.201
	c-0.121-0.12-0.284-0.495-0.332-0.391l-0.879-1.216c-0.404-0.662-0.673-1.366-1.11-2.129c-0.858-1.498-1.823-2.521-2.673-3.672
	C359.821,343.38,378.338,324.247,386.119,317.919L386.119,317.919z M514.736,291.483c13.01-4.477,17.943,14.659,6.678,18.507
	C508.607,314.363,502.703,295.624,514.736,291.483L514.736,291.483z M394.181,292.29c12.94-4.796,17.608,14.761,6.478,18.437
	C388.521,314.734,381.43,297.016,394.181,292.29L394.181,292.29z M508.348,318.003c-1.895,11.262-14.348,39.469-20.496,50.954
	c-2.816,5.261-6.289,10.753-8.668,15.805l-8.834-0.61c-4.693-12.421-17.279-31.185-24.166-40.101
	c-4.719-6.109-24.283-29.256-31.318-32.99c0.986-7.362,2.371-6.2,1.256-15.208c5.029-1.727,31.428-17.952,47.785-20.342
	c1.664,4.253,6.109,7.922,11.84,9.422c9.018,2.36,12.072-1.15,17.695-3.526c3.215,2.916,5.098,3.919,8.262,7.676
	c-0.805,3.44-4.85,7.802-2.445,16.629C501.217,312.905,504.291,314.289,508.348,318.003L508.348,318.003z M477.902,256.661
	c12.666-4.218,17.531,15.683,5.734,18.829C470.59,278.969,465.807,260.69,477.902,256.661L477.902,256.661z M308.68,256.898
	c12.293-4.537,18.307,14.6,5.97,18.589C302.919,279.282,295.871,261.626,308.68,256.898L308.68,256.898z M330.65,261.157
	c4.441-1.568,9.389-4.275,14.347-6.129c27.899-10.436,57.89-12.332,87.013-5.367c16.121,3.856,17.053,5.756,29.854,10.628
	c-0.057,0.57-0.471,4.043-0.572,4.351c-0.576,1.755-0.188,1.485-2.857,2.295c-12.305,3.734-23.357,8.27-34.717,14.096
	c-3.65,1.872-9.484,5.503-12.713,6.651c-5.465-6.71-18.299-8.425-27.37,0.03c-3.065-0.977-9.244-4.974-12.651-6.641
	c-4.454-2.179-7.896-3.927-12.603-6.01c-9.973-4.414-21.968-7.563-27.261-9.948L330.65,261.157L330.65,261.157z"/>
<path fill-rule="evenodd" clip-rule="evenodd" fill="#FFFFFF" d="M328.28,508.854c9.892-2.257,29.877-12.389,38.701-17.184
	c24.588-13.361,45.109-28.367,64.615-47.216c8.836-8.536,18.363-18.703,26.184-29.163c-3.732-7.113-3.66-6.838-3.348-16.313
	c-4.049-2.902-15.799-7.772-21.15-9.886c-7.482-2.955-14.801-5.813-22.66-8.189c-14.746-4.457-34.531-9.741-50.851-10.944
	c-3.376,5.601-2.941,8.413-8.489,12.172c-4.568,3.094-10.261,3.794-16.574,2.902c-5.966,7.421-15.381,38.982-17.697,50.829
	c-4.405,22.529-4.995,40.54-3.279,63.918C321.729,503.079,320.31,500.332,328.28,508.854L328.28,508.854z"/>
<path fill-rule="evenodd" clip-rule="evenodd" fill="#FFFFFF" d="M504.125,496.431c7.834-7.911,25.096-31.919,27.414-41.811
	c-3.373-2.531-7.07-6.741-10.67-9.811c-7.615-6.497-28.082-25.278-34.531-26.517l-2.453,1.917
	c1.648,10.811,9.598,29.662,1.514,31.109c-6.676,1.196-6.166-6.969-7.141-12.027c-1.07-5.562-2.43-10.497-3.549-15.886
	c-4.5-0.381-5.717-0.903-9.539-1.828c-1.678,2.604-4.496,5.462-6.543,8.139l-6.668,7.465c-2.592,2.485-4.525,5.053-7.039,7.75
	c-2.338,2.511-4.6,4.643-7.092,7.038l-31.5,26.339c-10.253,7.51-22.936,15.749-35.503,22.324c-6.05,3.165-12.941,6.481-19.51,9.438
	c-22.887,10.305-19.344,4.035-21.119,16.124c10.388,4.222,18.396,8.364,30.441,11.343c24.341,6.019,49.605,6.437,73.91-0.146
	c8.051-2.181,24.684-7.688,30.184-11.812c-0.51-7.954-0.494-10.964,3.492-16.868c3.551-5.259,7.551-5.862,11.621-7.712l0.885-0.483
	c0.588-5.738,0.969-11.495,1.105-17.351c0.133-5.747-1.576-13.658,5.701-12.745c5.602,0.703,4.059,9.052,3.887,14.679
	c-0.174,5.729-0.688,11.157-1.064,16.787c1.568,0.729,3.457,1.833,5.012,2.525L504.125,496.431L504.125,496.431z"/>
<path fill-rule="evenodd" clip-rule="evenodd" fill="#FFFFFF" d="M279.438,296.34c-1.445,1.751-2.982,3.784-4.412,5.683
	c-0.873,1.159-1.292,1.713-2.144,2.997c-0.924,1.393-1.442,2.193-2.435,3.344c3.583,6.542,2.39,5.441-1.432,12.082
	c-4.929,8.564-13.515,27.016-14.447,36.117c3.708,3.311,4.271,3.787,7.519,7.695c8.095-0.431,19.891-3.408,28.999-4.417
	c10.459-1.158,21.081-1.748,31.7-1.819c1.079-3.519,4.882-7.192,8.228-9.001c5.635-3.047,8.858-2.197,15.456-1.785
	c1.213-3.05,5.44-7.65,7.654-10.459c9.065-11.5,22.204-22.352,25.626-26.484c-2.032-6.721-2.216-6.865-1.293-14.347
	c-3.667-1.663-7.758-4.174-11.637-6.206c-9.537-4.995-27.999-12.88-37.99-14.841c-1.703,4.253-6.375,8.147-11.431,9.71
	c-8.891,2.748-11.202-0.474-17.445-2.513c-3.143,3.198-6.138,6.207-9.213,9.305C285.113,297.07,284.658,298.886,279.438,296.34
	L279.438,296.34z"/>
<path fill-rule="evenodd" clip-rule="evenodd" fill="#FFFFFF" d="M321.25,369.444c-0.125-0.174-0.53-0.674-0.602-0.762l-7.683-0.441
	c-6.179-0.408-43.234,4.044-48.663,5.929c-0.428,7.172-3.201,12.677-8.984,16.11l-5.607,2.914
	c-0.103,31.108,13.309,66.372,30.345,90.001c8.156,11.313,14.407,16.102,18.43,21.268c2.021-0.817,4.06-1.974,5.602-3.302
	c-0.262-12.567-1.39-23.01-0.648-36.014c1.417-24.813,7.401-50.093,17.011-72.702c1.715-4.036,4.302-8.792,5.557-12.747
	C324.059,376.661,321.592,374.075,321.25,369.444L321.25,369.444z"/>
<path fill-rule="evenodd" clip-rule="evenodd" fill="#FFFFFF" d="M508.348,318.003c-4.057-3.714-7.131-5.098-9.09-12.291
	c-2.404-8.827,1.641-13.188,2.445-16.629c-3.164-3.757-5.047-4.761-8.262-7.676c-5.623,2.376-8.678,5.886-17.695,3.526
	c-5.73-1.5-10.176-5.169-11.84-9.422c-16.357,2.391-42.756,18.615-47.785,20.342c1.115,9.008-0.27,7.846-1.256,15.208
	c7.035,3.734,26.6,26.881,31.318,32.99c6.887,8.916,19.473,27.68,24.166,40.101l8.834,0.61c2.379-5.051,5.852-10.543,8.668-15.805
	C494,357.472,506.453,329.265,508.348,318.003L508.348,318.003z"/>
<path fill-rule="evenodd" clip-rule="evenodd" fill="#FFFFFF" d="M487.502,389.98c4.898,7.395,6.461,8.55,4.701,19.958
	c3.967,2.251,7.914,5.352,11.654,8.183c3.914,2.965,7.545,5.627,11.182,8.741l20.834,18.451c2.953-10.992,6.043-18.989,7.691-31.573
	c3.699-28.262-0.566-56.009-12.068-81.724c-2.012-4.496-4.865-8.973-6.385-12.843l-6.951,1.068
	c-2.41,4.901-4.398,13.122-6.455,18.597c-5.572,14.837-8.744,21.087-15.354,34.783C494.141,378.204,488.65,386.098,487.502,389.98
	L487.502,389.98z"/>
<path fill-rule="evenodd" clip-rule="evenodd" fill="#FFFFFF" d="M386.119,317.919c-7.781,6.328-26.298,25.461-31.863,34.591
	c0.85,1.151,1.815,2.174,2.673,3.672c0.438,0.763,0.707,1.467,1.11,2.129l0.879,1.216c0.048-0.104,0.21,0.271,0.332,0.391
	c2.993,0.947,10.58,1.585,14.231,2.201c21.571,3.635,44.513,10.071,64.454,18.465c13.988,5.888,28.127,15.633,21.535,2.863
	l-8.279-14.83c-4.162-6.812-8.225-12.959-12.721-18.777c-2.572-3.327-4.6-5.836-7.133-8.94
	c-4.742-5.808-18.881-20.418-23.369-23.044c-3.502,1.609-6.061,3.128-10.931,3.07C391.407,320.857,390.049,318.88,386.119,317.919
	L386.119,317.919z"/>
<path fill-rule="evenodd" clip-rule="evenodd" fill="#FFFFFF" d="M330.65,261.157l0.47,3.957c5.292,2.384,17.288,5.534,27.261,9.948
	c4.707,2.083,8.148,3.832,12.603,6.01c3.407,1.667,9.586,5.664,12.651,6.641c9.071-8.455,21.905-6.74,27.37-0.03
	c3.229-1.148,9.063-4.779,12.713-6.651c11.359-5.827,22.412-10.362,34.717-14.096c2.67-0.81,2.281-0.54,2.857-2.295
	c0.102-0.308,0.516-3.781,0.572-4.351c-12.801-4.872-13.732-6.772-29.854-10.628c-29.123-6.965-59.114-5.069-87.013,5.367
	C340.039,256.882,335.091,259.589,330.65,261.157L330.65,261.157z"/>
<path fill-rule="evenodd" clip-rule="evenodd" fill="#000000" d="M514.736,291.483c-12.033,4.141-6.129,22.88,6.678,18.507
	C532.68,306.142,527.746,287.006,514.736,291.483L514.736,291.483z"/>
<path fill-rule="evenodd" clip-rule="evenodd" fill="#000000" stroke="#000000" stroke-width="0.216" stroke-miterlimit="22.9256" d="
	M477.902,256.661c-12.096,4.029-7.313,22.308,5.734,18.829C495.434,272.344,490.568,252.443,477.902,256.661L477.902,256.661z"/>
<path fill-rule="evenodd" clip-rule="evenodd" fill="#000000" d="M308.68,256.898c-12.81,4.728-5.761,22.383,5.97,18.589
	C326.987,271.498,320.974,252.361,308.68,256.898L308.68,256.898z"/>
<path fill-rule="evenodd" clip-rule="evenodd" fill="#000000" stroke="#000000" stroke-width="0.216" stroke-miterlimit="22.9256" d="
	M394.181,292.29c-12.751,4.726-5.659,22.444,6.478,18.437C411.789,307.051,407.121,287.494,394.181,292.29L394.181,292.29z"/>
<path fill-rule="evenodd" clip-rule="evenodd" fill="#000000" d="M464.178,406.689c3.25,11.638,22.043,7.665,18.82-5.592
	C480.184,389.518,460.408,393.192,464.178,406.689L464.178,406.689z"/>
<path fill-rule="evenodd" clip-rule="evenodd" fill="#000000" d="M301.962,521.082c1.515,12.158,21.364,10.037,19.368-3.185
	c-0.736-4.873-5.69-9.102-11.423-8.116C304.85,510.65,301.204,514.998,301.962,521.082L301.962,521.082z"/>
<path fill-rule="evenodd" clip-rule="evenodd" fill="#000000" d="M474.291,523.01c2.732,10.938,21.779,8.438,18.99-4.96
	C490.721,505.752,470.9,509.437,474.291,523.01L474.291,523.01z"/>
<path fill-rule="evenodd" clip-rule="evenodd" fill="#000000" d="M235.404,376.485c3.252,11.415,22.377,8.202,18.79-5.573
	C251.28,359.723,231.6,363.133,235.404,376.485L235.404,376.485z"/>
<path fill-rule="evenodd" clip-rule="evenodd" fill="#000000" d="M330.531,367.487c1.459,12.125,20.62,10.854,19.442-2.458
	C348.896,352.841,328.929,354.183,330.531,367.487L330.531,367.487z"/>
<path fill-rule="evenodd" clip-rule="evenodd" fill="#667A82" d="M321.25,369.444l-0.681-1.973c-2.387-0.24-5.871-0.179-7.603,0.769
	l7.683,0.441C320.72,368.77,321.125,369.27,321.25,369.444L321.25,369.444z"/>
<path fill-rule="evenodd" clip-rule="evenodd" fill="#000000" d="M223.649,422.873c30.301-3.787,54.333,19.003,57.682,45.219
	c3.842,30.077-18.665,54.814-44.687,58.137c-30.714,3.923-55.088-18.248-58.588-44.75
	C173.911,450.096,196.818,426.227,223.649,422.873L223.649,422.873z M206.624,217.952c-0.195-8.054-1.307-25.465,1.26-31.537
	c5.927-1.935,104.24-1.945,110.249-0.014c2.569,6.122,1.459,23.465,1.261,31.551c2.418,76.491,1.906,68.684-14.392,68.612
	l-92.062,0.027c-4.042-0.365-2.962,0.003-4.991-2.16C204.598,279.773,206.317,227.824,206.624,217.952L206.624,217.952z
	 M550.957,209.072c31.457-7.084,56.939,15.748,61.789,40.718c6.074,31.265-15.295,55.239-39.445,60.897
	c-31.908,7.476-57.207-15.251-62.555-39.853C503.709,238.451,526.193,214.649,550.957,209.072L550.957,209.072z M196.541,226.49
	c-0.067,12.33-0.017,24.669-0.027,37c-0.012,14.268-1.771,20.953,5.234,29.976c6.207,2.544,8.031,2.766,16.13,3.173
	c-1.161,3.537-7.697,18.409-10.276,20.574c0.7,2.209,1.375,1.886-0.603,1.886c-0.394,3.522-8.589,25.499-11.578,46.813
	c-1.399,9.979-1.42,17.439-1.421,28.578c-0.002,19.378,0.678,12.121,2,28c-28.289,14.969-43.656,65.37-7.763,98.764
	c7.499,6.978,21.262,14.518,34.763,15.406c19.216,1.231,20.083-2.477,28-3.058c16.728,17.653,41.326,33.876,64.691,44.152
	c3.698,1.626,7.883,2.538,10.303,5.159c3.914-0.074,28.376,7.486,37.578,8.939c33.666,5.317,70.057,2.066,101.772-10.072
	c5.047-1.932,13.088-6.046,17.826-6.884c2.773,9.161,8.568,15.251,13.941,20.498c3.133,3.059,5.32,5.202,9.344,7.623
	c3.285,1.978,8.271,3.407,10.299,6.472c5.217,0.394,8.912,2.332,14.309,2.939c24.842,2.795,44.918-6.128,59.531-25.346
	c4.564-6.005,9.406-15.548,9.406-25.594l-3-1.963l-5.275,0.809c-5.225,11.345-4.885,15.362-12.986,24.881
	c-4.838,5.684-13.023,11.984-23.031,14.997c-19.617,5.904-40.537,0.875-54.063-14.35c-0.127-0.144-0.336-0.373-0.453-0.514
	c-1.273-1.528-0.299,0.059-1.174-1.663c-3.18-2.857-6.236-7.818-8.236-13.197l1.096-1.034c0.15-0.124,0.398-0.349,0.568-0.48
	l17.434-10.465c1.262-1.359,1.941-2.032,3.797-3.364c1.844-1.323,2.514-1.82,4.299-2.561c1.885-2.292,9.705-9.083,12.213-10.202
	c2.234-3.744,8.611-8.486,12.117-12.584c2.102-2.456,3.91-4.18,6.158-6.822c2.182-2.564,2.824-3.774,5.535-6.301
	c1.658-3.992,5.68-7.519,8.146-12.473l6.49,4.165c4.975,2.474,11.357,9.979,14.459,15.056c2.041,3.344,3.605,6.402,4.887,10.088
	c1.826,5.261,1.352,6.896,7.02,7.604c2.391-0.733,2.545,0.257,3.693-3.026c1.129-3.226,0.191-4.781-0.969-6.6
	c-4.898-19.269-21.598-29.361-22.73-31.946c-3.104-1.201-4.27-1.52-6.693-4.054c2.6-6.156,6.766-12.605,9.908-19.769
	c1.545-3.521,7.049-18.941,9.219-21.118c-0.123-3.046,1.02-7.362,2.572-9.69c0.363-5.138,2.244-9.705,3.277-15.145
	c2.297-12.091,2.676-20.475,3.67-32.332c0.887-10.554-3.217-40.745-5.359-50.535l-6-21c-1.158-3.028-1.824-4.135-2.588-7.411
	c10.566-5.591,18.426-8.878,26.443-19.556c21.162-28.182,16.256-64.13-5.672-84.216c-4.445-4.072-8.883-6.696-13.771-9.947
	c-8.43-2.539-12.404-5.583-22.947-6.588c-24.025-2.291-51.037,11.649-57.648,27.652c-4.797-1.635-11.633-6.931-16.938-9.808
	c-18.15-9.845-33.98-16.054-55.266-20.786c-19.766-4.395-78.319-7.537-89.389,2.311l0.125,6.144
	c5.256,3.016,10.143,0.468,20.132-0.938c22.057-3.105,45.161-2.491,67.274,2.333c17.92,3.909,58.301,18.944,68.139,30.4
	c-4.738,9.606-5.418,22.174-4.232,34.321l1.367,8.757l3.488,6.855c10.236,23.727,25.867,26.768,34.898,33.21
	c14.482,2.313,16.131,4.079,32.996,2.475c3.328,4.224,5.457,12.452,6.635,18.376l2.621,9.166c1.146,3.98,1.615,5.368,1.291,9.45
	c4.686,5.714,4.838,63.223-0.031,68.665c0.199,4.132-0.174,5.72-1.318,9.564c-2.957,13.046-7.971,26.786-13.389,37.987
	c-2.842,5.879-5.273,10.573-8.693,16.318c-3.242,5.445-6.742,9.726-9.598,14.938c-1.953,2.305-2.646,3.257-4.176,5.297
	c-0.688,0.917-1.066,1.565-2.268,2.663c-2.664,2.435-0.334,0.626-2.068,1.429c-2.707,6.475-18.334,20.185-24.387,25.146
	c-8.992,7.368-17.529,13.21-28.504,19.486c-70.08,40.076-162.65,28.485-216.956-20.889c-3.313-1.69-9.155-7.627-10.991-10.215
	l14.856-12.321c2.674-4.549,7.617-9.229,10.678-16.978c5.939-15.033,6.857-29.474,1.608-45.023
	c-2.642-7.826-6.475-12.079-9.363-17.845c-1.333-1.333-3.044-2.839-4.493-4.299c-2.076-2.094-3.185-2.442-3.461-4.539
	c-10.353-5.88-14.423-10.641-29.829-13.981c-17.355-3.764-26.157,1.847-35.514,3.335c-1.598-10.614-2.799-55.655,2.772-61.94
	l0.655-5.414c1.259-5.823,7.344-28.308,11.084-33c1.281-5.058,6.311-17.611,10.836-19.953l28.797,0.069l47.729-0.053
	c9.587-0.063,9.685-0.532,17.002-3.115c6.414-10.47,4.58-7.571,4.896-22.943c0.185-8.995,0.11-18.002,0.052-27
	c-0.12-18.678-0.161-37.326-0.286-55.995c-3.867-14.251-14.865-12.137-30.191-12.139c-13.744-0.001-28.364,0.481-42-0.125
	c-39.116,3.921-61.143-11.856-61.003,23.255C196.03,206.817,194.917,218.758,196.541,226.49L196.541,226.49z"/>
<path fill-rule="evenodd" clip-rule="evenodd" fill="#FEFEFF" d="M278.592,273.872c-4.021-12.166,11.822-12.084,7.789-0.021
	C283.348,274.808,281.638,274.813,278.592,273.872L278.592,273.872z M261.462,265.48c6.198-2.801,8.688,6.169,4.018,8.629
	c-3.262,1.718-6.04-0.14-6.936-2.234C256.028,266.001,261.44,265.49,261.462,265.48L261.462,265.48z M239.625,273.851
	c-4.007-12.104,11.831-12.107,7.782,0.027C244.364,274.812,242.653,274.803,239.625,273.851L239.625,273.851z M277.511,235.49
	c0-7.401,2.473-8.363,8.863-6.361c1.746,5.223,1.108,14.058,1.108,20.361c0,10.331-9.971,10.474-9.971,0V235.49L277.511,235.49z
	 M258.017,235.49c0-11.841,15.066-13.479,9.074,20.206c-4.349,1.845-3.835,1.851-8.304,0.014L258.017,235.49L258.017,235.49z
	 M238.538,236.49c0-5.96,2.744-12.081,8.468-7.077c2.195,1.919,3.242,24.387-1.159,26.99
	C236.556,261.901,238.538,241.822,238.538,236.49L238.538,236.49z M319.394,217.952H206.624c-0.306,9.872-2.025,61.821,1.325,66.479
	c2.029,2.163,0.949,1.795,4.991,2.16l92.062-0.027C321.3,286.636,321.812,294.443,319.394,217.952L319.394,217.952z"/>
<path fill-rule="evenodd" clip-rule="evenodd" fill="#000000" d="M579.768,280.49l-0.281,11.269
	c-5.197,1.192-33.693,3.227-35.523-1.986c-2.564-7.311,2.84-7.645-3.379-12.902c-1.326-1.121-1.953-1.29-3.371-2.596
	c-18.871-17.386-5.486-48.42,23.773-48.866c25.432-0.387,40.48,22.422,30.945,41.045
	C586.736,276.597,581.932,275.207,579.768,280.49L579.768,280.49z M550.957,209.072c-24.764,5.577-47.248,29.379-40.211,61.762
	c5.348,24.601,30.646,47.328,62.555,39.853c24.15-5.658,45.52-29.632,39.445-60.897C607.896,224.82,582.414,201.988,550.957,209.072
	L550.957,209.072z"/>
<path fill-rule="evenodd" clip-rule="evenodd" fill="#000000" d="M211.475,493.028c-23.97-9.53-19.338-53.234,18.531-52.94
	c35.112,0.272,43.449,40.791,17.808,53.156c-0.194,12.603,1.622,13.947-8.752,13.829c-3.026-0.034-6.035-0.044-9.062-0.044
	c-5.3-0.001-13.697,0.548-18.127-0.809L211.475,493.028L211.475,493.028z M223.649,422.873
	c-26.831,3.354-49.738,27.223-45.593,58.605c3.5,26.502,27.874,48.673,58.588,44.75c26.022-3.322,48.529-28.06,44.687-58.137
	C277.981,441.876,253.95,419.086,223.649,422.873L223.649,422.873z"/>
<path fill-rule="evenodd" clip-rule="evenodd" fill="#000000" d="M297.576,196.084c2.146-1.497,5.704-0.719,7.954-0.087
	C309.626,208.583,293.576,208.447,297.576,196.084L297.576,196.084z M272.536,195.401c1.196,2.124,2.746,3.696,1.759,6.404
	c-0.705,1.936-2.705,3.919-5.844,3.233C263.789,204.019,260.953,194.57,272.536,195.401L272.536,195.401z M282.749,196.13
	c6.68-4.34,10.498,4.391,5.821,7.964C283.165,208.223,277.222,199.721,282.749,196.13L282.749,196.13z M206.624,217.952h112.771
	c0.198-8.085,1.308-25.429-1.261-31.551c-6.009-1.931-104.322-1.921-110.249,0.014C205.316,192.487,206.428,209.898,206.624,217.952
	L206.624,217.952z"/>
<path fill-rule="evenodd" clip-rule="evenodd" fill="#000000" d="M561.699,520.622c0.822,1.162,0.477,1.047,1.246,2.397
	c5.82,2.685,11.316,13.659,9.707,24.275c-1.438,9.487-8.311,16.94-14.709,20.058c-0.107,6.652,1.133,11.867-2.594,13.282
	c-2.689,1.021-30.08,0.685-33.359-0.53l0.174-12.065l-2.16-0.35c-1.441,4.477-15.211,11.415-19.986,15.998
	c0.875,1.722-0.1,0.135,1.174,1.663c0.117,0.141,0.326,0.37,0.453,0.514c13.525,15.225,34.445,20.254,54.063,14.35
	c10.008-3.013,18.193-9.313,23.031-14.997c8.102-9.519,7.762-13.536,12.986-24.881l5.275-0.809c0-5.989,0.736-14.015-1-18.411
	c-5.668-0.707-5.193-2.343-7.02-7.604c-1.281-3.686-2.846-6.744-4.887-10.088c-3.102-5.077-9.484-12.582-14.459-15.056
	L561.699,520.622L561.699,520.622z"/>
<path fill-rule="evenodd" clip-rule="evenodd" fill="#FEFEFF" d="M556.957,275.49c1.242-2.935,2.07-3.813,5.043-4.875
	c2.994,1.604,3.055,1.321,4.326,4.875C563.523,280.774,559.467,281.791,556.957,275.49L556.957,275.49z M582.25,263.49
	c-4.428,10.641-20.258,6.121-15.615-5.249C570.705,248.272,586.787,252.583,582.25,263.49L582.25,263.49z M540.316,261.49
	c-1.408-11.823,15.699-11.732,16.855-0.917C558.502,273.005,541.537,271.732,540.316,261.49L540.316,261.49z M579.768,280.49
	c2.164-5.284,6.969-3.893,12.164-14.036c9.535-18.623-5.514-41.432-30.945-41.045c-29.26,0.446-42.645,31.48-23.773,48.866
	c1.418,1.306,2.045,1.475,3.371,2.596c6.219,5.257,0.814,5.591,3.379,12.902c1.83,5.213,30.326,3.178,35.523,1.986L579.768,280.49
	L579.768,280.49z"/>
<path fill-rule="evenodd" clip-rule="evenodd" fill="#FEFEFF" d="M224.997,489.49c6.649-11.759,13.594,4.639,5.003,5.139
	C225.33,493.192,226.691,492.855,224.997,489.49L224.997,489.49z M209.104,478.49c-4.634-12.353,12.259-15.116,15.573-5.54
	C228.978,485.377,212.372,487.2,209.104,478.49L209.104,478.49z M250.101,478.49c-4.45,10.325-20.27,5.281-15.335-6.154
	C238.674,463.28,255.179,466.709,250.101,478.49L250.101,478.49z M211.475,493.028l0.398,13.192
	c4.43,1.356,12.827,0.808,18.127,0.809c3.027,0,6.036,0.01,9.062,0.044c10.374,0.118,8.559-1.227,8.752-13.829
	c25.641-12.365,17.304-52.884-17.808-53.156C192.137,439.794,187.505,483.498,211.475,493.028L211.475,493.028z"/>
<path fill-rule="evenodd" clip-rule="evenodd" fill="#FEFEFF" d="M535.117,563.49c1.742-2.759,1.455-2.938,4.883-4.191
	c0.203,0.008,8.252,2.119,1.469,9.316C537.188,568.14,536.105,567.074,535.117,563.49L535.117,563.49z M548.174,542.211
	c12.646-3.092,16.314,6.424,10.566,12.988c-6.689,7.64-19.219-0.904-13.625-8.05c-3.029,0.407-2.615,0.967-4.836,3.574
	c-0.75,0.879-1.672,2.008-2.512,2.576c-2.049,1.387-0.227,0.636-3.254,1.421l-2.23,2.397c-1.084,3.476,0.93,0.086-1.994,3.683
	c-0.322,0.397-2.029,1.876-2.617,2.378c-1.934,1.649-3.51,2.923-5.508,4.86l-0.174,12.065c3.279,1.215,30.67,1.551,33.359,0.53
	c3.727-1.415,2.486-6.63,2.594-13.282c6.398-3.117,13.271-10.57,14.709-20.058c1.609-10.616-3.887-21.591-9.707-24.275
	c-2.713,0.859-2.691,2.105-4.486,4.823c-1.215,1.84-2.355,3.488-3.709,5.338C553.121,535.407,547.758,541.112,548.174,542.211
	L548.174,542.211z"/>
<path fill-rule="evenodd" clip-rule="evenodd" fill="#000000" d="M613,482.49c0-6.884,9-6.884,9,0
	C622,487.598,613,487.598,613,482.49L613,482.49z M607.939,469.49c-2.115,3.576-6.078,7.028-5.295,13.993
	c0.76,6.769,4.619,8.678,7.275,12.007c6.383,1.433,10.438,2.602,15.973-1.105C640.566,484.558,630.066,458.188,607.939,469.49
	L607.939,469.49z"/>
<path fill-rule="evenodd" clip-rule="evenodd" fill="#000000" d="M545.109,170.744c-0.287-5.458-0.281-3.806,2.166-7.076
	l4.977-0.068C557.795,170.796,552.311,176.29,545.109,170.744L545.109,170.744z M546,153.973
	c-14.822,4.349-14.443,24.23-0.955,28.475c7.66,2.412,14.285-1.379,17.115-5.829c4.83-7.59,2.232-13.079-1.363-19.129
	c-1.885-1.454-3.338-2.662-6.268-3.598C550.184,152.503,549.758,152.897,546,153.973L546,153.973z"/>
<path fill-rule="evenodd" clip-rule="evenodd" fill="#FFD8D8" d="M531.188,542.384c4.041,4.798,4.928,4.989,3.326,12.337
	c3.027-0.785,1.205-0.034,3.254-1.421c0.84-0.568,1.762-1.697,2.512-2.576c2.221-2.607,1.807-3.167,4.836-3.574
	c1.373-2.539,1.787-2.901,3.059-4.938c-0.416-1.099,4.947-6.804,6.576-9.03c1.354-1.85,2.494-3.498,3.709-5.338
	c1.795-2.718,1.773-3.964,4.486-4.823c-0.77-1.351-0.424-1.235-1.246-2.397l-6.701-3.945c-2.711,2.526-3.354,3.736-5.535,6.301
	c-2.248,2.643-4.057,4.366-6.158,6.822C539.799,533.897,533.422,538.64,531.188,542.384L531.188,542.384z"/>
<path fill-rule="evenodd" clip-rule="evenodd" fill="#FF4D4D" d="M500.018,583.688c4.775-4.583,18.545-11.521,19.986-15.998
	c-0.902-1.518-3.162-3.076-4.668-4.495c-1.811-1.704-2.393-2.598-4.457-4.684l-17.434,10.465c-0.17,0.132-0.418,0.356-0.568,0.48
	l-1.096,1.034C493.781,575.869,496.838,580.83,500.018,583.688L500.018,583.688z"/>
<path fill-rule="evenodd" clip-rule="evenodd" fill="#000000" d="M167,319.49c3.108,13.343,13.4,1.071,15,0
	c7.783,11.624,13,3.357,13,1c0-3.5-10.5-14-14-14C177.987,306.49,168.638,317.044,167,319.49L167,319.49z"/>
<path fill-rule="evenodd" clip-rule="evenodd" fill="#000000" d="M487.26,185.272c8.439,2.372,7.52-1.587,12.74-5.023
	c3.813,1.894,4.092,4.437,6.307,5.361c3.955,1.653,7.564-1.146,7.195-5.017c-0.268-2.808-8.803-10.394-11.232-13.003
	c-6.885-0.193-7.354,1.919-10.818,5.35C487.625,176.727,485.379,177.791,487.26,185.272L487.26,185.272z"/>
<path fill-rule="evenodd" clip-rule="evenodd" fill="#FD6A6C" d="M238.538,236.49c0,5.332-1.982,25.411,7.309,19.914
	c4.4-2.604,3.354-25.071,1.159-26.99C241.282,224.41,238.538,230.53,238.538,236.49L238.538,236.49z"/>
<path fill-rule="evenodd" clip-rule="evenodd" fill="#FD6A6C" d="M277.511,235.49v14c0,10.474,9.971,10.331,9.971,0
	c0-6.303,0.638-15.138-1.108-20.361C279.984,227.127,277.511,228.089,277.511,235.49L277.511,235.49z"/>
<path fill-rule="evenodd" clip-rule="evenodd" fill="#FD6A6C" d="M258.017,235.49l0.771,20.219c4.468,1.837,3.955,1.831,8.304-0.014
	C273.083,222.011,258.017,223.649,258.017,235.49L258.017,235.49z"/>
<path fill-rule="evenodd" clip-rule="evenodd" fill="#FD6A6C" d="M540.316,261.49c1.221,10.242,18.186,11.515,16.855-0.917
	C556.016,249.758,538.908,249.667,540.316,261.49L540.316,261.49z"/>
<path fill-rule="evenodd" clip-rule="evenodd" fill="#FD6A6C" d="M250.101,478.49c5.078-11.781-11.427-15.21-15.335-6.154
	C229.831,483.771,245.651,488.815,250.101,478.49L250.101,478.49z"/>
<path fill-rule="evenodd" clip-rule="evenodd" fill="#FD6A6C" d="M582.25,263.49c4.537-10.907-11.545-15.218-15.615-5.249
	C561.992,269.611,577.822,274.131,582.25,263.49L582.25,263.49z"/>
<path fill-rule="evenodd" clip-rule="evenodd" fill="#FD6A6C" d="M548.174,542.211c-1.271,2.037-1.686,2.399-3.059,4.938
	c-5.594,7.146,6.936,15.689,13.625,8.05C564.488,548.635,560.82,539.119,548.174,542.211L548.174,542.211z"/>
<path fill-rule="evenodd" clip-rule="evenodd" fill="#FD6A6C" d="M209.104,478.49c3.268,8.71,19.874,6.887,15.573-5.54
	C221.364,463.374,204.47,466.138,209.104,478.49L209.104,478.49z"/>
<path fill-rule="evenodd" clip-rule="evenodd" fill="#FFD8D8" d="M510.879,558.511c2.064,2.086,2.646,2.979,4.457,4.684
	c1.506,1.419,3.766,2.978,4.668,4.495l2.16,0.35c1.998-1.938,3.574-3.211,5.508-4.86c0.588-0.502,2.295-1.98,2.617-2.378
	c2.924-3.597,0.91-0.207,1.994-3.683c-8.396,1.959-9.113,0.357-13.309-4.532c-1.785,0.74-2.455,1.237-4.299,2.561
	C512.82,556.479,512.141,557.151,510.879,558.511L510.879,558.511z"/>
<path fill-rule="evenodd" clip-rule="evenodd" fill="#FF4D4D" d="M518.975,552.586c4.195,4.89,4.912,6.491,13.309,4.532l2.23-2.397
	c1.602-7.348,0.715-7.539-3.326-12.337C528.68,543.503,520.859,550.294,518.975,552.586L518.975,552.586z"/>
<path fill-rule="evenodd" clip-rule="evenodd" fill="#FF4D4D" d="M554.998,516.677l6.701,3.945l7.936-12.253l-6.49-4.165
	C560.678,509.158,556.656,512.685,554.998,516.677L554.998,516.677z"/>
<path fill-rule="evenodd" clip-rule="evenodd" fill="#FFD8D8" d="M282.749,196.13c-5.526,3.59,0.417,12.093,5.821,7.964
	C293.247,200.521,289.429,191.791,282.749,196.13L282.749,196.13z"/>
<path fill-rule="evenodd" clip-rule="evenodd" fill="#FFD8D8" d="M272.536,195.401c-11.583-0.832-8.747,8.618-4.085,9.637
	c3.139,0.686,5.139-1.298,5.844-3.233C275.281,199.097,273.731,197.525,272.536,195.401L272.536,195.401z"/>
<path fill-rule="evenodd" clip-rule="evenodd" fill="#FFD8D8" d="M297.576,196.084c-4,12.363,12.051,12.499,7.954-0.087
	C303.28,195.365,299.721,194.587,297.576,196.084L297.576,196.084z"/>
<path fill-rule="evenodd" clip-rule="evenodd" fill="#FD6A6C" d="M261.462,265.48c-0.022,0.01-5.434,0.521-2.918,6.395
	c0.896,2.094,3.674,3.952,6.936,2.234C270.149,271.649,267.66,262.679,261.462,265.48L261.462,265.48z"/>
<path fill-rule="evenodd" clip-rule="evenodd" fill="#FD6A6C" d="M278.592,273.872c3.046,0.941,4.756,0.937,7.789-0.021
	C290.414,261.787,274.571,261.706,278.592,273.872L278.592,273.872z"/>
<path fill-rule="evenodd" clip-rule="evenodd" fill="#FD6A6C" d="M239.625,273.851c3.028,0.952,4.738,0.96,7.782,0.027
	C251.457,261.744,235.619,261.748,239.625,273.851L239.625,273.851z"/>
<path fill-rule="evenodd" clip-rule="evenodd" fill="#000000" d="M545.109,170.744c7.201,5.546,12.686,0.052,7.143-7.144
	l-4.977,0.068C544.828,166.938,544.822,165.285,545.109,170.744L545.109,170.744z"/>
<path fill-rule="evenodd" clip-rule="evenodd" fill="#FD6A6C" d="M224.997,489.49c1.695,3.365,0.333,3.702,5.003,5.139
	C238.59,494.129,231.646,477.731,224.997,489.49L224.997,489.49z"/>
<path fill-rule="evenodd" clip-rule="evenodd" fill="#FD6A6C" d="M535.117,563.49c0.988,3.584,2.07,4.649,6.352,5.125
	c6.783-7.197-1.266-9.309-1.469-9.316C536.572,560.553,536.859,560.731,535.117,563.49L535.117,563.49z"/>
<path fill-rule="evenodd" clip-rule="evenodd" fill="#FD6A6C" d="M556.957,275.49c2.51,6.3,6.566,5.284,9.369,0
	c-1.271-3.554-1.332-3.271-4.326-4.875C559.027,271.677,558.199,272.556,556.957,275.49L556.957,275.49z"/>
</svg>
